<svg id="мой_shit" data-name="мой shit" xmlns="http://www.w3.org/2000/svg" viewBox="0 0 803.98398 390.91117"><defs><style>.cls-1{fill:#46b3d8;}.cls-19,.cls-2,.cls-3{fill:#2c2928;}.cls-19,.cls-20,.cls-3{stroke:#2c2928;}.cls-4{fill:#cbad3a;}.cls-20,.cls-5{fill:#dddddc;}.cls-6{fill:#eae534;}.cls-7{fill:#272525;}.cls-8{fill:#cd3943;}.cls-9{fill:#2f3078;}.cls-10{fill:#d04e43;}.cls-11{fill:#bfbebe;}.cls-12{fill:#33a357;}.cls-13{fill:#d1c83d;}.cls-14{fill:#3f4d9b;}.cls-15{fill:#29d359;}.cls-16{fill:#a62540;}.cls-17{fill:#fff;}.cls-18{fill:#bcbcbc;}.cls-19,.cls-20{stroke-miterlimit:10;}.cls-20{stroke-linecap:round;}</style></defs><title>mt</title><rect class="cls-1" x="2.80238" y="144.64224" width="106.74603" height="106.74603" rx="15" ry="15"/><path class="cls-2" d="M114.55075,360.20651H41.78221c-6.20182,0-12.41234-.80548-15.37457-7.33165-1.6707-3.68078-1.10292-8.44952-1.10292-12.40272V276.46286c0-5.16933-.39222-10.28783,3.66117-14.34122s9.17188-3.66117,14.34122-3.66117h64.00928c3.9532,0,8.72194-.56778,12.40272,1.10292,6.52617,2.96223,7.33165,9.17275,7.33165,15.37457V343.729c0,8.16461-2.7632,16.04032-12.5,16.47749-3.20458.14388-3.22234,5.14468,0,5a17.86609,17.86609,0,0,0,17.5-17.70941c.13933-4.29669,0-8.62125,0-12.91956V284.08945c0-4.29831.13935-8.62287,0-12.91956a17.85144,17.85144,0,0,0-17.5-17.70941c-11.5994-.43576-23.29812,0-34.90407,0-13.67461,0-27.36378-.18751-41.03728,0-8.32006.1141-15.8848,5.07276-17.82664,13.49347-.9186,3.98347-.478,8.45183-.478,12.50275v49.37242c0,11.66643-2.98588,28.347,9.80805,34.59182,4.43412,2.16432,9.26605,1.78557,14.0382,1.78557h70.39978C117.768,365.20651,117.77334,360.20651,114.55075,360.20651Z" transform="translate(-20.00234 -111.31824)"/><path class="cls-3" d="M41.94238,281.86377A89.36371,89.36371,0,0,1,56.75,280.71094c7.62549,0,13.21191,1.77344,16.7583,4.96533,3.28076,2.8374,5.23193,7.18213,5.23193,12.50244,0,5.40918-1.59619,9.665-4.61084,12.76855-4.0791,4.34473-10.729,6.56152-18.26611,6.56152a26.54981,26.54981,0,0,1-6.20654-.53223V340.917H41.94238Zm7.71436,28.81689a25.86526,25.86526,0,0,0,6.38428.62109c9.31006,0,14.98486-4.52246,14.98486-12.76855,0-7.8916-5.58643-11.7041-14.09863-11.7041a32.38311,32.38311,0,0,0-7.27051.62061Z" transform="translate(-20.00234 -111.31824)"/><path class="cls-3" d="M85.83154,332.93652A20.44634,20.44634,0,0,0,96.11719,336.04c5.6748,0,8.335-2.83691,8.335-6.38379,0-3.72461-2.2168-5.76367-7.98047-7.8916-7.71387-2.749-11.34961-7.00488-11.34961-12.14746,0-6.916,5.58643-12.59131,14.80811-12.59131a21.427,21.427,0,0,1,10.55127,2.65967l-1.95068,5.6748a16.70708,16.70708,0,0,0-8.77832-2.48242c-4.61035,0-7.18213,2.66016-7.18213,5.85254,0,3.54688,2.57178,5.14258,8.15771,7.27051,7.44824,2.83789,11.26074,6.56152,11.26074,12.94531,0,7.53711-5.85205,12.85742-16.04883,12.85742a24.47293,24.47293,0,0,1-12.05908-2.92578Z" transform="translate(-20.00234 -111.31824)"/><rect class="cls-4" x="142.13571" y="144.64224" width="106.74603" height="106.74603" rx="15" ry="15"/><path class="cls-2" d="M253.88408,360.20651H181.11554c-6.20182,0-12.41234-.80548-15.37457-7.33165-1.6707-3.68078-1.10292-8.44952-1.10292-12.40272V276.46286c0-5.16933-.39222-10.28783,3.66117-14.34122s9.17188-3.66117,14.34122-3.66117h64.00928c3.9532,0,8.72194-.56778,12.40272,1.10292,6.52617,2.96223,7.33165,9.17275,7.33165,15.37457V343.729c0,8.16461-2.7632,16.04032-12.5,16.47749-3.20458.14388-3.22234,5.14468,0,5a17.86609,17.86609,0,0,0,17.5-17.70941c.13933-4.29669,0-8.62125,0-12.91956V284.08945c0-4.29831.13935-8.62287,0-12.91956a17.85144,17.85144,0,0,0-17.5-17.70941c-11.5994-.43576-23.29812,0-34.90407,0-13.67461,0-27.36378-.18751-41.03728,0-8.32006.1141-15.88479,5.07276-17.82664,13.49347-.9186,3.98347-.478,8.45183-.478,12.50275v49.37242c0,11.66643-2.98588,28.347,9.80805,34.59182,4.43412,2.16432,9.26605,1.78557,14.0382,1.78557h70.39978C257.10135,365.20651,257.10667,360.20651,253.88408,360.20651Z" transform="translate(-20.00234 -111.31824)"/><path class="cls-3" d="M190.94092,322.11914l-6.207,18.79785h-7.98l20.30518-59.7627h9.31006l20.394,59.7627H218.5166l-6.38379-18.79785Zm19.5957-6.0293-5.85205-17.20215c-1.33008-3.90137-2.2168-7.44775-3.10352-10.90576h-.17725c-.88672,3.54639-1.8623,7.18213-3.01465,10.81689l-5.85205,17.291Z" transform="translate(-20.00234 -111.31824)"/><path class="cls-3" d="M243.69678,285.94238c.08838,2.66016-1.8623,4.78809-4.96582,4.78809a4.63952,4.63952,0,0,1-4.69922-4.78809,4.75422,4.75422,0,0,1,4.87646-4.877A4.63171,4.63171,0,0,1,243.69678,285.94238ZM235.00684,340.917V298.001h7.80322v42.916Z" transform="translate(-20.00234 -111.31824)"/><rect class="cls-5" x="693.48335" y="5.81516" width="106.74603" height="78.20641" rx="12.83916" ry="12.83916"/><path class="cls-2" d="M807.39257,192.83981H742.92424c-8.004,0-23.26842,2.79428-26.45062-7.18578-1.04364-3.27309-.48792-7.43509-.48792-10.80706V136.22291c0-4.71926-.66948-9.89316,3.02827-13.56124,3.15776-3.13242,7.08823-3.02827,11.12818-3.02827h71.69647c2.76135,0,6.04-.36275,8.70733.48792,7.30307,2.32914,7.18578,9.27584,7.18578,15.44243v41.97483c0,7.1913-1.10128,14.83476-10.33916,15.30123-3.2021.16169-3.2214,5.16267,0,5a15.66482,15.66482,0,0,0,15.33916-15.43845c.16836-4.39406,0-8.82758,0-13.22453,0-12.85094.34648-25.75327,0-38.59966-.19926-7.38817-4.55606-13.94325-12.087-15.59362-3.07361-.67357-6.51479-.35015-9.63113-.35015h-41.5922c-10.82516,0-21.70592-.31839-32.52757,0-6.89069.20273-13.1825,3.979-15.24158,10.85659-1.19746,3.99968-.66653,8.76293-.66653,12.87788V179.729c0,5.7355,1.0975,11.05653,5.91046,14.83762,3.75207,2.94765,8.06337,3.27316,12.59506,3.27316h77.90134C810.60983,197.83981,810.61516,192.83981,807.39257,192.83981Z" transform="translate(-20.00234 -111.31824)"/><path class="cls-5" d="M784.85873,205.919c-.86685-2.49871,0-10.57922,0-10.57922h-36s.86686,8.08051,0,10.57922c-3.25066,9.37-14.16669,12.96039-35.373,12.96039h106.746C799.02536,218.87941,788.10938,215.289,784.85873,205.919Z" transform="translate(-20.00234 -111.31824)"/><path class="cls-2" d="M787.26943,205.25442c-.78775-3.09413-.23669-6.76534.0893-9.91462a2.52212,2.52212,0,0,0-2.5-2.5h-36a2.51487,2.51487,0,0,0-2.5,2.5c.65878,6.36424.97936,12.20382-4.91434,16.10831-7.79827,5.16624-19.01683,4.88719-27.9587,4.9313-3.21669.01587-3.223,5,0,5h106.746c3.21769,0,3.222-4.9841,0-5-10.0553-.04961-28.51789.6642-32.96229-11.125-1.12445-2.98272-5.95968-1.69021-4.8214,1.3292,5.50549,14.60382,24.74978,14.73148,37.78368,14.79579v-5h-106.746v5c10.32515-.05094,23.27006.00166,31.91011-6.63462,6.493-4.98714,6.74728-11.82773,5.96294-19.405l-2.5,2.5h36l-2.5-2.5c-.37816,3.65327-.82679,7.64561.0893,11.24382C783.24141,209.69981,788.065,208.37921,787.26943,205.25442Z" transform="translate(-20.00234 -111.31824)"/><rect class="cls-2" x="704.61034" y="16.17602" width="84" height="57.48469" rx="9.76462" ry="9.76462"/><path class="cls-2" d="M798.84806,182.479H750.79731c-5.37851,0-11.06108.53335-16.42,0-10.32933-1.028-7.26462-17.03732-7.26462-24.24859V143.00324c0-2.95349-.52679-6.74243.99183-9.411,3.13139-5.50249,14.07488-3.598,19.28741-3.598,16.94887,0,34.216-.99479,51.13629,0,10.61326.624,7.58447,16.52479,7.58447,23.75168v16.788c0,5.34947-.07827,11.46152-7.26462,11.945-3.19348.21484-3.21739,5.21645,0,5,6.92309-.46575,11.93335-5.28284,12.26462-12.29926.15356-3.25241,0-6.55084,0-9.80567,0-9.3252.43937-18.7651,0-28.08052a12.55283,12.55283,0,0,0-12.26462-12.29926c-1.93294-.10649-3.90121,0-5.83624,0H759.68309c-8.27971,0-16.62227-.301-24.89774,0-5.19035.18876-9.85672,2.78641-11.816,7.79919-1.279,3.27224-.85665,7.14338-.85665,10.58864,0,10.27255-.18215,20.56234,0,30.83321.16956,9.5614,7.12962,13.26365,15.66708,13.26365h61.06831C802.06533,187.479,802.07065,182.479,798.84806,182.479Z" transform="translate(-20.00234 -111.31824)"/><circle class="cls-6" cx="482.60489" cy="55.81825" r="53.37302"/><path class="cls-2" d="M451.73421,167.1365c.27532-21.41757,13.71354-41.03415,34.16375-48.07077a50.88718,50.88718,0,1,1,6.452,97.91463c-23.60091-4.90827-40.30814-25.91515-40.61573-49.84386-.04133-3.21495-5.04144-3.22385-5,0a55.87575,55.87575,0,1,0,45.61455-54.9238c-26.376,4.78764-45.27393,28.42583-45.61455,54.9238C446.69284,170.355,451.69282,170.35676,451.73421,167.1365Z" transform="translate(-20.00234 -111.31824)"/><path class="cls-2" d="M474.67651,191.29781a40.03452,40.03452,0,0,0,55.86144,0c2.32307-2.23537-1.21527-5.7682-3.53553-3.53553a34.933,34.933,0,0,1-48.79037,0c-2.31927-2.23171-5.8596,1.2992-3.53553,3.53553Z" transform="translate(-20.00234 -111.31824)"/><circle class="cls-7" cx="508.76784" cy="47.82852" r="3.75"/><path class="cls-2" d="M530.02018,159.14676a1.25059,1.25059,0,0,1-2.5,0,1.25059,1.25059,0,0,1,2.5,0c.17236,3.20051,5.17345,3.22074,5,0a6.25,6.25,0,1,0-6.4543,6.239,6.364,6.364,0,0,0,6.4543-6.239C535.19334,155.93136,530.19282,155.941,530.02018,159.14676Z" transform="translate(-20.00234 -111.31824)"/><circle class="cls-7" cx="456.44194" cy="47.82852" r="3.75"/><path class="cls-2" d="M477.69428,159.14676a1.25059,1.25059,0,0,1-2.5,0,1.25059,1.25059,0,0,1,2.5,0c.17236,3.20051,5.17345,3.22074,5,0a6.25,6.25,0,1,0-6.4543,6.239,6.364,6.364,0,0,0,6.4543-6.239C482.86744,155.93136,477.86692,155.941,477.69428,159.14676Z" transform="translate(-20.00234 -111.31824)"/><rect class="cls-8" x="142.13571" y="279.92789" width="106.74603" height="106.74603" rx="15" ry="15"/><path class="cls-2" d="M253.88408,495.49217H181.11554c-6.20182,0-12.41234-.80548-15.37457-7.33165-1.6707-3.68078-1.10292-8.44952-1.10292-12.40272V411.74852c0-5.16933-.39222-10.28783,3.66117-14.34122s9.17188-3.66117,14.34122-3.66117h64.00928c3.9532,0,8.72194-.56778,12.40272,1.10292,6.52617,2.96223,7.33165,9.17275,7.33165,15.37457v68.79105c0,8.16461-2.7632,16.04032-12.5,16.47749-3.20458.14388-3.22234,5.14468,0,5a17.86609,17.86609,0,0,0,17.5-17.70941c.13933-4.29669,0-8.62125,0-12.91956V419.37511c0-4.29831.13935-8.62287,0-12.91956a17.85144,17.85144,0,0,0-17.5-17.70941c-11.5994-.43576-23.29812,0-34.90407,0-13.67461,0-27.36378-.18751-41.03728,0-8.32006.1141-15.88479,5.07276-17.82664,13.49347-.9186,3.98347-.478,8.45183-.478,12.50275v49.37242c0,11.66643-2.98588,28.347,9.80805,34.59182,4.43412,2.16432,9.26605,1.78557,14.0382,1.78557h70.39978C257.10135,500.49217,257.10667,495.49217,253.88408,495.49217Z" transform="translate(-20.00234 -111.31824)"/><path class="cls-3" d="M184.64014,455.51074l-5.58887,16.9248H171.8667L190.14844,418.627h8.38232l18.3623,53.80859h-7.4248l-5.748-16.9248ZM202.2832,450.082l-5.269-15.48828c-1.19727-3.51172-1.99609-6.70508-2.79395-9.81934h-.16016c-.79785,3.19336-1.67627,6.4668-2.71387,9.74023L186.07666,450.082Z" transform="translate(-20.00234 -111.31824)"/><path class="cls-3" d="M224.314,444.25391c0-3.99121-.07959-7.26465-.31934-10.458h6.22754l.39893,6.38672h.15967A14.20792,14.20792,0,0,1,243.5542,432.918c5.34863,0,13.65137,3.19336,13.65137,16.44531v23.07227h-7.02539V450.16211c0-6.22754-2.31494-11.416-8.94141-11.416a9.98017,9.98017,0,0,0-9.41992,7.18457,10.09831,10.09831,0,0,0-.47949,3.27344v23.23145H224.314Z" transform="translate(-20.00234 -111.31824)"/><rect class="cls-9" x="12.8619" y="319.86677" width="30.49463" height="57.3985"/><path class="cls-2" d="M63.35887,486.08351H32.86424l2.5,2.5V431.185l-2.5,2.5H63.35887l-2.5-2.5v57.3985c0,3.21726,5,3.22259,5,0V431.185a2.53633,2.53633,0,0,0-2.5-2.5H32.86424a2.53633,2.53633,0,0,0-2.5,2.5v57.3985a2.53633,2.53633,0,0,0,2.5,2.5H63.35887C66.57613,491.08351,66.58146,486.08351,63.35887,486.08351Z" transform="translate(-20.00234 -111.31824)"/><path class="cls-5" d="M63.35887,431.185s23.21263-17.304,23.21263-26.167,17.33248-7.80037,11.81734,16.03782c-3.4015,14.70234-13.08348,15.61577-13.08348,15.61577s34.18587-6.33072,34.18587,13.92758-3.79843,36.29611-24.05672,37.9843-32.07563,0-32.07563,0Z" transform="translate(-20.00234 -111.31824)"/><path class="cls-2" d="M64.62067,433.34369a136.215,136.215,0,0,0,14.08109-12.04257,51.59059,51.59059,0,0,0,8.00537-9.50453,16.77705,16.77705,0,0,0,2.05079-4.52347c.25749-1.02418-.00972-2.64344.55907-3.56236,1.05076-1.69757,2.91869-1.54086,4.42856-.46618,3.13264,2.22972,3.35255,7.2816,3.19057,10.69114-.28527,6.00449-1.98865,13.06584-6.52035,17.32649a11.904,11.904,0,0,1-3.64025,2.42324c-.38073.15234-2.64922.6195-1.47017.48619l.6646,4.9107a54.5097,54.5097,0,0,1,17.4705-.40817c3.98225.59513,8.55058,1.81034,11.25724,5.029,3.59689,4.27723,2.37168,11.31993,1.93693,16.41044-1.14418,13.39717-6.60106,24.5163-21.20012,25.97a172.85475,172.85475,0,0,1-23.09582.65281c-2.02674-.071-4.0535-.17726-6.07428-.34987-.45117-.03854-3.44815-.38105-2.24093-.21364l1.8354,2.4107V431.185c0-3.21726-5-3.22259-5,0v57.3985a2.51852,2.51852,0,0,0,1.8354,2.4107c8.92334,1.23744,18.13791,1.01292,27.099.48915,11.17-.65288,21.84788-2.91654,27.421-13.67018a43.72779,43.72779,0,0,0,4.16164-15.14119c.62418-5.3107,1.473-11.62985-.02811-16.85567-2.23447-7.77888-10.066-11.05064-17.43061-12.0849a61.27377,61.27377,0,0,0-19.27646.52952c-2.738.49793-2.1459,5.22846.6646,4.9107,14.49525-1.63887,20.87153-25.2347,14.44773-36.42227-2.39809-4.17647-7.81393-7.08054-12.31654-4.18718a7.73522,7.73522,0,0,0-3.29516,5.54755c-.70326,3.75935-2.354,6.39611-4.89229,9.33506a108.5309,108.5309,0,0,1-17.152,15.58155C59.55109,430.93173,62.04085,435.2744,64.62067,433.34369Z" transform="translate(-20.00234 -111.31824)"/><path class="cls-7" d="M499.10419,446.23187c4.35669-5.58972,6.89563-14.43359,6.22064-22.03967a32.9773,32.9773,0,1,0-29.93323,35.76324c6.08533-.54,11.57745-4.72015,16.48358-7.6156L535.21045,495.675l6.66852-6.66852Z" transform="translate(-20.00234 -111.31824)"/><path class="cls-7" d="M501.26286,447.49367c18.55092-25.41564-4.79443-60.66584-35.11816-55.28575-28.92411,5.13177-38.97569,43.03541-16.59774,61.95066a35.75613,35.75613,0,0,0,19.67054,8.26354c9.38776.91349,16.17837-3.25063,23.91948-7.9236l-3.02956-.39091,43.33527,43.33521a2.53817,2.53817,0,0,0,3.53553,0l6.66852-6.66852a2.53817,2.53817,0,0,0,0-3.53553L500.872,444.46411c-2.2782-2.2782-5.81471,1.25636-3.53553,3.53553L540.1112,490.7743v-3.53553l-6.66852,6.66852h3.53553L493.643,450.57208a2.54665,2.54665,0,0,0-3.02956-.39091c-7.86066,4.74513-14.51369,8.73442-24.04891,6.839a30.54027,30.54027,0,1,1,30.381-12.05014C495.04622,447.5722,499.38263,450.06968,501.26286,447.49367Z" transform="translate(-20.00234 -111.31824)"/><polygon class="cls-5" points="421.682 251.009 430.492 218.129 454.561 242.199 421.682 251.009"/><path class="cls-2" d="M444.09456,362.99175l8.81017-32.87995-4.17846,1.10317,24.06978,24.06981,1.10317-4.17846-32.88,8.81014c-3.10491.832-1.78759,5.65653,1.3292,4.8214l32.88-8.81014a2.5235,2.5235,0,0,0,1.10317-4.17846L452.2618,327.67944a2.5235,2.5235,0,0,0-4.17846,1.10317l-8.81017,32.87995C438.43942,364.77413,443.26126,366.10165,444.09456,362.99175Z" transform="translate(-20.00234 -111.31824)"/><rect class="cls-10" x="451.27597" y="297.22319" width="77.38501" height="33.95799" transform="translate(-98.66839 327.16948) rotate(-45)"/><path class="cls-2" d="M531.10194,297.08064,507.09,273.06872a2.53817,2.53817,0,0,0-3.53553,0L448.835,327.78819a2.53817,2.53817,0,0,0,0,3.53553l24.01192,24.01192a2.53817,2.53817,0,0,0,3.53553,0l54.71947-54.71947c2.2782-2.2782-1.25636-5.81471-3.53553-3.53553l-54.71947,54.71947h3.53553l-24.01192-24.01192v3.53553L507.09,276.60425h-3.53553l24.01192,24.01192C529.84461,302.89437,533.38112,299.35982,531.10194,297.08064Z" transform="translate(-20.00234 -111.31824)"/><polygon class="cls-2" points="421.287 251.563 426.384 232.542 440.308 246.467 421.287 251.563"/><rect class="cls-2" x="513.25013" y="259.16852" width="29.54602" height="33.95799" transform="translate(-60.61372 342.93224) rotate(-45)"/><path class="cls-2" d="M552.243,275.93961,528.231,251.92769a2.53817,2.53817,0,0,0-3.53553,0l-20.89219,20.89219a2.53817,2.53817,0,0,0,0,3.53553l24.01192,24.01192a2.53817,2.53817,0,0,0,3.53553,0L552.243,279.47514c2.2782-2.2782-1.25636-5.81471-3.53553-3.53553L527.81524,296.8318h3.53553l-24.01192-24.01192v3.53553L528.231,255.46322h-3.53553l24.01192,24.01192C550.98564,281.75334,554.52215,278.21879,552.243,275.93961Z" transform="translate(-20.00234 -111.31824)"/><ellipse class="cls-2" cx="619.49193" cy="370.05255" rx="37.97824" ry="17.99157"/><path class="cls-2" d="M674.97251,481.3708c-.29847,6.11522-7.43289,9.72014-12.38939,11.62832a64.4174,64.4174,0,0,1-23.08885,3.86324c-8.41862,0-17.25431-1.17218-24.9974-4.65227-4.24607-1.90838-10.48084-5.42675-10.48084-10.83929,0-5.41752,6.2035-8.91722,10.48084-10.83929,7.73846-3.47736,16.58517-4.66113,24.9974-4.65227a64.58091,64.58091,0,0,1,23.08885,3.86324c4.96987,1.91334,12.091,5.51376,12.38939,11.62832.15632,3.20287,5.15724,3.22171,5,0-.60086-12.31084-16.2219-17.40287-26.209-19.21347-14.76914-2.67757-33.18738-2.01882-46.18168,6.42921-8.71922,5.66866-11.70456,15.70671-3.19956,23.17154,11.22746,9.85432,29.7108,11.18317,43.82006,9.62911,11.1119-1.22391,31.07362-5.74488,31.77018-20.0164C680.1295,478.15443,675.12909,478.16264,674.97251,481.3708Z" transform="translate(-20.00234 -111.31824)"/><path class="cls-5" d="M675.248,396.65167a6.03832,6.03832,0,0,0-7.14566,4.642l-18.501,25.24893h0s-.32456,4-10.107,4c-8.88422,0-9.82778-4-9.82778-4h0l-18.78046-25.24893a6.02129,6.02129,0,1,0-11.77535,2.52269L618.562,438.76218h0v56.342s6.14559,4.25815,20.93226,4.25815,22.68343-4.25815,22.68343-4.25815v-56.342h0l17.7-34.94578A6.05429,6.05429,0,0,0,675.248,396.65167Z" transform="translate(-20.00234 -111.31824)"/><path class="cls-2" d="M675.248,394.15167c-5.774-.55137-7.58878,3.14236-10.27257,7.20163-2.65684,4.01851-5.73041,7.82049-8.57743,11.70593-2.70175,3.68718-5.57486,7.29994-8.12775,11.09223a14.00618,14.00618,0,0,0-1.14075,2.14482c.56781-.65946-.31448.17688-.48531.28314a12.3081,12.3081,0,0,1-6.287,1.44076c-4.752.15035-7.234-.73375-9.33888-3.82425-2.50691-3.68082-5.33892-7.17778-7.99671-10.751L614.436,401.90221c-2.60141-3.49741-3.81056-7.5109-8.98405-7.83758-5.70206-.36006-10.52607,5.561-8.48376,11.04237.966,2.59264,2.84386,5.10925,4.18543,7.51949,4.8069,8.636,9.17113,17.76913,14.51725,26.08153.76083,1.183.433,1.78782.39116.14628.02114.83027,0,1.664,0,2.49442V485.735c0,2.915-.51144,6.34082,0,9.22037.53132,2.99149,4.17445,3.871,6.75653,4.68863,12.14989,3.84741,29.0899,3.67477,40.621-2.3811a2.48857,2.48857,0,0,0,1.2382-2.15868V449.701c0-3.103.16549-6.25715,0-9.35652-.02745-.514-.00937-1.04353,0-1.559-.03318,1.82619-.17618.82114.5467-.51467,4.09618-7.5693,7.79231-15.38464,11.68114-23.06249,1.62011-3.19865,3.65027-6.42252,4.948-9.76906,1.94579-5.01765-1.15717-9.57643-5.94093-11.19821-3.05412-1.0354-4.36494,3.79222-1.3292,4.8214a3.54554,3.54554,0,0,1,2.62369,4.50295,20.47574,20.47574,0,0,1-1.84615,3.64493l-5.59357,11.04359c-3.12812,6.176-7.24036,12.47468-9.61574,18.9847-1.33794,3.66679-.474,8.617-.474,12.46243v45.40326l1.2382-2.15868c-6.30684,3.31222-14.47412,3.912-21.42164,3.91683-6.18206.00433-14.28079-.30654-19.67046-3.91683l1.2382,2.15868V453.962c0-4.79655.83768-10.4352,0-15.17659-.2972-1.68221-1.38854-3.16643-2.21359-4.6487l-5.68209-10.20838-6.6352-11.92072c-1.466-2.63381-3.60773-5.46085-4.62308-8.30577-.33362-.93477-.7796-.87969-.33774-1.93982l2.10866-1.32536q2.91125-3.27264,4.79649,1.52167c.13591.17517.12774.43694.26408.61341.15607.202.303.41114.45715.6146,1.93951,2.55983,3.83431,5.15494,5.751,7.73184,4.15519,5.58635,8.5762,11.05472,12.50061,16.80613-.66-.96725.52595.97585.82873,1.37016a9.091,9.091,0,0,0,3.75765,2.69583,21.31879,21.31879,0,0,0,15.91973-.22859,7.57994,7.57994,0,0,0,3.51695-2.9809c.21719-.39637.29985-.88888.52117-1.26517.88763-1.50916-.51445.79164-.0754.27443,2.13617-2.51647,3.95533-5.398,5.90519-8.059l8.97544-12.2491c.91919-1.25445,1.83183-2.514,2.75769-3.76352,1.56915-2.1177,2.64668-4.65762,5.69255-4.36676C678.44935,399.45737,678.42834,394.45536,675.248,394.15167Z" transform="translate(-20.00234 -111.31824)"/><circle class="cls-5" cx="619.49193" cy="288.06458" r="17.98635"/><path class="cls-2" d="M654.98063,399.38283c-.31025,8.44156-6.80078,15.48635-15.48636,15.48635a15.48636,15.48636,0,0,1,0-30.97271c8.68558,0,15.17611,7.0448,15.48636,15.48636.1179,3.20783,5.11847,3.22335,5,0-.40917-11.13316-9.03614-20.48636-20.48636-20.48636a20.48635,20.48635,0,0,0,0,40.97271c11.451-.04029,20.076-9.32109,20.48636-20.48635C660.0989,396.16482,655.09872,396.16969,654.98063,399.38283Z" transform="translate(-20.00234 -111.31824)"/><rect class="cls-11" x="560.13571" y="160.85011" width="106.74603" height="74.33029"/><path class="cls-2" d="M686.88408,269.66835h-106.746a2.53633,2.53633,0,0,0-2.5,2.5v74.33029a2.53633,2.53633,0,0,0,2.5,2.5h106.746a2.53633,2.53633,0,0,0,2.5-2.5V272.16835c0-3.21726-5-3.22259-5,0v74.33029l2.5-2.5h-106.746l2.5,2.5V272.16835l-2.5,2.5h106.746C690.10135,274.66835,690.10667,269.66835,686.88408,269.66835Z" transform="translate(-20.00234 -111.31824)"/><polygon class="cls-5" points="560.136 160.85 613.509 198.015 666.882 160.85 560.136 160.85"/><path class="cls-2" d="M578.87625,274.327l53.373,37.16514a2.43246,2.43246,0,0,0,2.5236,0l53.373-37.16514c1.95409-1.36069,1.36018-4.65868-1.2618-4.65868h-106.746c-3.21726,0-3.22259,5,0,5h106.746l-1.2618-4.65868-53.373,37.16514h2.5236l-53.373-37.16514C578.75326,268.16678,576.25125,272.49917,578.87625,274.327Z" transform="translate(-20.00234 -111.31824)"/><path class="cls-3" d="M759.65039,299.35254l-19.88672,7.04492,19.88672,7.04492v9.10156l-30.7334-11.3457v-9.60059l30.7334-11.34619Z" transform="translate(-20.00234 -111.31824)"/><path class="cls-3" d="M781.53125,275.72607h10.53613l-20.57324,58.7251H760.959Z" transform="translate(-20.00234 -111.31824)"/><path class="cls-3" d="M823.48633,301.59766v9.60059l-30.7334,11.3457v-9.10156l19.88672-7.04492-19.88672-7.04492v-9.10107Z" transform="translate(-20.00234 -111.31824)"/><rect class="cls-12" x="746.85636" y="332.70528" width="52.22657" height="40.643"/><path class="cls-2" d="M816.58528,444.02353v40.643l2.5-2.5H766.85871l2.5,2.5v-40.643l-2.5,2.5h52.22657c3.21726,0,3.22259-5,0-5H766.85871a2.53633,2.53633,0,0,0-2.5,2.5v40.643a2.53633,2.53633,0,0,0,2.5,2.5h52.22657a2.53633,2.53633,0,0,0,2.5-2.5v-40.643C821.58528,440.80627,816.58528,440.80094,816.58528,444.02353Z" transform="translate(-20.00234 -111.31824)"/><polygon class="cls-13" points="734.429 343.648 763.524 293.254 792.619 343.648 734.429 343.648"/><path class="cls-2" d="M756.58973,456.22764l29.095-50.39407h-4.31735l29.095,50.39407,2.15868-3.7618H754.43105c-3.21726,0-3.22259,5,0,5h58.19006a2.5236,2.5236,0,0,0,2.15868-3.7618L785.68476,403.31a2.52361,2.52361,0,0,0-4.31735,0l-29.095,50.39407C750.66057,456.49578,754.97959,459.01649,756.58973,456.22764Z" transform="translate(-20.00234 -111.31824)"/><circle class="cls-14" cx="734.42871" cy="343.6476" r="25.0815"/><path class="cls-2" d="M731.84955,454.96585c.33184-12.30479,10.023-22.5815,22.5815-22.5815a22.5815,22.5815,0,0,1,0,45.163c-12.559,0-22.24957-10.27339-22.5815-22.5815-.0866-3.21119-5.08695-3.224-5,0,.30692,11.38086,6.98611,21.636,17.75813,25.7674a27.80407,27.80407,0,0,0,31.04708-8.16968c15.97382-19.36007-1.22381-49.00522-25.95666-44.76164-13.29287,2.28074-22.49161,13.92821-22.84855,27.16392C726.76275,458.1845,731.76281,458.18234,731.84955,454.96585Z" transform="translate(-20.00234 -111.31824)"/><path class="cls-15" d="M305.95035,306.93612l28,28c2.2782,2.2782,5.81471-1.25636,3.53553-3.53553l-28-28c-2.2782-2.2782-5.81471,1.25636-3.53553,3.53553Z" transform="translate(-20.00234 -111.31824)"/><path class="cls-15" d="M337.48589,334.93612l53.24764-53.24764,7.75236-7.75236c2.2782-2.2782-1.25636-5.81471-3.53553-3.53553l-53.24764,53.24764-7.75236,7.75236c-2.2782,2.2782,1.25636,5.81471,3.53553,3.53553Z" transform="translate(-20.00234 -111.31824)"/><path class="cls-5" d="M667.428,168.91576l-68.44985-24.57245,24.57252,68.44978,9.88138-26.251,26.867,26.867,7.745-7.745-26.867-26.867Z" transform="translate(-20.00234 -111.31824)"/><path class="cls-2" d="M668.09257,166.50506l-68.44985-24.57245a2.515,2.515,0,0,0-3.0753,3.0753l24.57252,68.44978a2.52465,2.52465,0,0,0,4.8214,0l9.88138-26.251-4.17846,1.10317,26.867,26.867a2.53817,2.53817,0,0,0,3.53553,0l7.745-7.745a2.53817,2.53817,0,0,0,0-3.53553l-26.867-26.867-1.10317,4.17846,26.251-9.88138c2.98348-1.123,1.69085-5.9582-1.3292-4.8214l-26.251,9.88138a2.53231,2.53231,0,0,0-1.10317,4.17846l26.867,26.867v-3.53553l-7.745,7.745h3.53553l-26.867-26.867a2.53231,2.53231,0,0,0-4.17846,1.10317l-9.88138,26.251h4.8214l-24.57252-68.44978-3.0753,3.0753,68.44985,24.57245C669.79724,172.41557,671.10365,167.586,668.09257,166.50506Z" transform="translate(-20.00234 -111.31824)"/><rect class="cls-16" x="287.59603" y="22.15538" width="94" height="66.03291" rx="12" ry="12"/><path class="cls-2" d="M389.59837,197.00654H335.14026c-6.082,0-17.44668,1.98768-22.23812-2.80377-3.307-3.307-2.80377-7.62815-2.80377-11.85029V150.62769c0-4.22222-.50352-8.543,2.80377-11.85029,4.79918-4.79918,16.15349-2.80377,22.23812-2.80377h34.9613c6.44292,0,13.06519-.44638,19.49681,0,7.56229.52485,9.5,6.45591,9.5,12.79825v34.85565c0,6.43924-1.5411,12.94675-9.5,13.379-3.20029.17381-3.22065,5.17492,0,5a14.84859,14.84859,0,0,0,14.5-14.5c.16029-3.37592,0-6.79936,0-10.17776,0-10.53048.3804-21.13668,0-31.66066-.245-6.77852-4.48687-12.73736-11.26936-14.32715-2.76991-.64926-5.87707-.36735-8.69677-.36735H348.13158c-9.345,0-18.72993-.25506-28.07214,0-5.89224.16087-11.18529,3.08-13.6734,8.59245-1.66613,3.69135-1.28767,7.80863-1.28767,11.75205,0,11.46012-.06766,22.92241,0,34.38231.06161,10.43541,6.92886,16.3061,17.03388,16.3061h67.46612C392.81563,202.00654,392.821,197.00654,389.59837,197.00654Z" transform="translate(-20.00234 -111.31824)"/><polygon class="cls-17" points="356.287 56.688 320.18 35.842 320.18 77.534 356.287 56.688"/><path class="cls-2" d="M377.55088,165.84787,341.44443,145.0018a2.5236,2.5236,0,0,0-3.7618,2.15868v41.69214a2.5236,2.5236,0,0,0,3.7618,2.15868l36.10645-20.84607c2.78583-1.6084.27089-5.93075-2.5236-4.31735l-36.10645,20.84607,3.7618,2.15868V147.16047l-3.7618,2.15868,36.10645,20.84607C377.819,171.777,380.33973,167.458,377.55088,165.84787Z" transform="translate(-20.00234 -111.31824)"/><rect class="cls-5" x="303.51674" y="280.33717" width="71.50031" height="106.49206" rx="5.37596" ry="5.37596"/><path class="cls-2" d="M389.64344,495.64748H337.65506c-3.18105,0-10.31038,1.574-11.636-2.876-.54885-1.84249,0-4.65631,0-6.54711V406.48309c0-2.72347-.6467-6.43974,0-9.11345,1.05544-4.36364,5.77063-3.21423,8.94231-3.21423h41.22622c3.95192,0,9.07121-.88066,12.937,0,4.03428.919,3.39476,3.67351,3.39476,6.56393v84.10643c0,2.40331,1.3984,10.32557-2.876,10.8217-3.15862.36663-3.19568,5.37093,0,5,10.96226-1.2724,7.876-16.57069,7.876-24.35849V428.26252c0-10.2983.5704-20.775,0-31.06092-.30973-5.58528-4.41673-7.9685-9.5063-8.04619-5.86113-.08947-11.73047,0-17.59218,0-13.52315,0-27.13865-.46939-40.65438,0-10.85343.37693-8.74746,12.0266-8.74746,19.61753,0,27.53361-.66181,55.1523,0,82.67757.28162,11.7128,13.13028,9.197,21.33178,9.197h47.29257C392.8607,500.64748,392.866,495.64748,389.64344,495.64748Z" transform="translate(-20.00234 -111.31824)"/><rect class="cls-2" x="312.42015" y="290.01391" width="53.6935" height="71.76911" rx="3.82449" ry="3.82449"/><path class="cls-2" d="M382.2915,470.60126h-35.679c-2.86418,0-6.75385.68724-9.55149,0-4.03376-.9909-2.13852-11.00748-2.13852-14.26833V412.87131c0-2.06227-.637-5.31735,0-7.30884.76184-2.38163,3.17089-1.73032,5.20941-1.73032h40.07189c2.19361,0,3.0255.40011,3.4122,2.561.47964,2.68025,0,5.87911,0,8.597v48.17608c0,2.07832,1.1179,7.01966-1.98909,7.52435-3.168.5146-1.8237,5.33354,1.3292,4.8214,7.90243-1.28364,5.65989-12.67639,5.65989-18.37341V409.28238c0-2.336.32777-4.9901-.80944-7.11774-1.82463-3.41377-5.25794-3.33249-8.56875-3.33249H365.13126c-9.4279,0-19.03679-.55184-28.45041,0-8.18379.47974-6.75835,8.91049-6.75835,14.72337v33.43511c0,7.30728-.62286,14.91874,0,22.20549.80767,9.44872,16.20349,6.40514,22.53216,6.40514H382.2915C385.50876,475.60126,385.51409,470.60126,382.2915,470.60126Z" transform="translate(-20.00234 -111.31824)"/><circle class="cls-18" cx="339.67627" cy="375.18019" r="6.67721"/><path class="cls-2" d="M354.8764,486.49843c.3313-6.152,9.60443-6.20555,9.60443,0,0,6.20858-9.273,6.15387-9.60443,0-.12927-2.40039-3.88008-2.41556-3.75,0,.24963,4.63544,3.71547,8.55221,8.55221,8.55221a8.54616,8.54616,0,0,0,.36378-17.08484c-4.97827-.20795-8.6583,3.74748-8.916,8.53262C350.99653,488.91,354.74692,488.90278,354.8764,486.49843Z" transform="translate(-20.00234 -111.31824)"/><path class="cls-5" d="M268.54746,181.40325V166.69243H257.7674a41.19173,41.19173,0,0,0-7.4168-17.082l7.86394-7.86394L247.8124,131.34437l-8.179,8.179a41.13743,41.13743,0,0,0-16.76692-6.28793v-12.224H208.15566v12.78119a41.19716,41.19716,0,0,0-15.502,6.9956l-9.44387-9.44387-10.40215,10.40215,9.6906,9.6906a41.15126,41.15126,0,0,0-6.14309,15.25532H162.47468v14.71082h13.81748a41.14076,41.14076,0,0,0,6.06833,15.393l-9.5529,9.5529,10.40215,10.40215,9.23784-9.23784a41.206,41.206,0,0,0,15.70808,7.14209v12.42866h14.71082v-11.8714a41.14468,41.14468,0,0,0,16.98174-6.42568l7.96417,7.96417,10.40215-10.40215-7.7174-7.7174a41.17848,41.17848,0,0,0,7.3332-17.22852Zm-53.03639,2.22442a9.67817,9.67817,0,1,1,9.67817-9.67817A9.67817,9.67817,0,0,1,215.51107,183.62767Z" transform="translate(-20.00234 -111.31824)"/><path class="cls-2" d="M271.04746,181.40325V166.69243a2.53633,2.53633,0,0,0-2.5-2.5H257.7674l2.4107,1.8354a46.2051,46.2051,0,0,0-7.66882-17.67917l-.39091,3.02956,7.86394-7.86394a2.53817,2.53817,0,0,0,0-3.53553L249.58016,129.5766a2.53817,2.53817,0,0,0-3.53553,0l-8.179,8.179,3.02956-.39091a46.24979,46.24979,0,0,0-17.36411-6.54l1.8354,2.4107v-12.224a2.53633,2.53633,0,0,0-2.5-2.5H208.15566a2.53633,2.53633,0,0,0-2.5,2.5v12.78119l1.8354-2.4107a46.82517,46.82517,0,0,0-16.09924,7.24762l3.02956.39091-9.44387-9.44387a2.53817,2.53817,0,0,0-3.53553,0l-10.40215,10.40215a2.53817,2.53817,0,0,0,0,3.53553l9.6906,9.6906-.39091-3.02956a46.86848,46.86848,0,0,0-6.39511,15.85251l2.4107-1.8354H162.47468a2.53633,2.53633,0,0,0-2.5,2.5v14.71082a2.53633,2.53633,0,0,0,2.5,2.5h13.81748l-2.4107-1.8354a46.87446,46.87446,0,0,0,6.32035,15.99022l.39091-3.02956-9.5529,9.5529a2.53817,2.53817,0,0,0,0,3.53553L181.442,218.51908a2.53817,2.53817,0,0,0,3.53553,0l9.23784-9.23784-3.02956.39091a46.42143,46.42143,0,0,0,16.30528,7.39412l-1.8354-2.4107v12.42866a2.53633,2.53633,0,0,0,2.5,2.5h14.71082a2.53633,2.53633,0,0,0,2.5-2.5v-11.8714l-1.8354,2.4107a46.21243,46.21243,0,0,0,17.57894-6.6777l-3.02956-.39091,7.96417,7.96417a2.53817,2.53817,0,0,0,3.53553,0l10.40215-10.40215a2.53817,2.53817,0,0,0,0-3.53553l-7.7174-7.7174.39091,3.02956a45.89227,45.89227,0,0,0,7.58522-17.82572l-2.4107,1.8354h10.71711c3.21726,0,3.22259-5,0-5H257.83035a2.52894,2.52894,0,0,0-2.4107,1.8354A42.50558,42.50558,0,0,1,248.33847,197.37a2.51849,2.51849,0,0,0,.39091,3.02956l7.7174,7.7174V204.5814l-10.40215,10.40215h3.53553l-7.96417-7.96417a2.54069,2.54069,0,0,0-3.02956-.39091,42.81924,42.81924,0,0,1-16.38455,6.17366,2.51105,2.51105,0,0,0-1.8354,2.4107v11.8714l2.5-2.5H208.15566l2.5,2.5V214.65558a2.53943,2.53943,0,0,0-1.8354-2.4107,42.83772,42.83772,0,0,1-15.11088-6.89007,2.51659,2.51659,0,0,0-3.02956.39091l-9.23784,9.23784h3.53553L174.57536,204.5814v3.53553l9.5529-9.5529a2.54241,2.54241,0,0,0,.39091-3.02956,43.15823,43.15823,0,0,1-5.81631-14.79582,2.52124,2.52124,0,0,0-2.4107-1.8354H162.47468l2.5,2.5V166.69243l-2.5,2.5h13.88043a2.53112,2.53112,0,0,0,2.4107-1.8354,43.20269,43.20269,0,0,1,5.89107-14.65812,2.53574,2.53574,0,0,0-.39091-3.02956l-9.6906-9.6906v3.53553l10.40215-10.40215H181.442l9.44387,9.44387a2.52921,2.52921,0,0,0,3.02956.39091,43.23124,43.23124,0,0,1,14.90484-6.74358,2.53633,2.53633,0,0,0,1.8354-2.4107V121.01145l-2.5,2.5h14.71082l-2.5-2.5v12.224a2.52231,2.52231,0,0,0,1.8354,2.4107A42.80875,42.80875,0,0,1,238.3716,141.682a2.538,2.538,0,0,0,3.02956-.39091l8.179-8.179h-3.53553l10.40215,10.40215v-3.53553l-7.86394,7.86394a2.5279,2.5279,0,0,0-.39091,3.02956A42.85471,42.85471,0,0,1,255.3567,167.357a2.52424,2.52424,0,0,0,2.4107,1.8354h10.78006l-2.5-2.5v14.71082C266.04746,184.62052,271.04746,184.62584,271.04746,181.40325Z" transform="translate(-20.00234 -111.31824)"/><path class="cls-2" d="M215.51107,181.12767c-9.1946-.49516-9.27552-14.35635,0-14.35635,9.2794,0,9.19817,13.861,0,14.35635-3.20051.17236-3.22074,5.17345,0,5,6.60162-.35552,12.17818-5.28976,12.17817-12.17817a12.1695,12.1695,0,0,0-24.328-.52727c-.30117,7.09335,5.33121,12.33824,12.14978,12.70544C218.72647,186.30083,218.71687,181.30032,215.51107,181.12767Z" transform="translate(-20.00234 -111.31824)"/><path class="cls-19" d="M110.08533,170.03656c-2.596-17.88348-5.73755-39.72662-27.6535-43.16144.01282-.15613.02509-.31268.02509-.47888a6.27917,6.27917,0,0,0-12.55835,0c0,.1662.01227.32275.02509.47888-21.91589,3.43481-25.05743,25.278-27.65344,43.16144C39.44458,189.502,37.24683,201.7464,22.80475,201.7464v6.27917h106.746V201.7464C115.10864,201.7464,112.91095,189.502,110.08533,170.03656Z" transform="translate(-20.00234 -111.31824)"/><path class="cls-19" d="M60.47978,213.66667v4.20215c0,7.23131,6.9071,12.91308,15.698,12.91308s15.69794-5.68176,15.69794-12.91308v-4.20215Z" transform="translate(-20.00234 -111.31824)"/><circle class="cls-20" cx="452.6203" cy="315.33301" r="29.98459"/></svg>