<svg xmlns="http://www.w3.org/2000/svg" xmlns:xlink="http://www.w3.org/1999/xlink" viewBox="0 0 841.68 595.44"><defs><style>.cls-1{fill:#000916;}.cls-2{fill:#00173d;}.cls-3{fill:#012368;}.cls-4{fill:#0220a0;}.cls-5{fill:none;stroke:#001e35;stroke-miterlimit:10;stroke-width:3px;}.cls-6{fill:#00b8bc;}.cls-7{fill:#002f42;}.cls-8{fill:#000819;}.cls-9{fill:#00c3ff;}.cls-10{fill:#008eaf;}.cls-11{fill:#057ad1;}.cls-12{fill:#00588e;}.cls-13{fill:#001e35;}.cls-14{fill:#001344;}.cls-15{fill:url(#Безымянный_градиент_14);}.cls-16{fill:#0682f2;}.cls-17{fill:#001560;}.cls-18{fill:#00154f;}.cls-19{fill:#01153f;}.cls-20{fill:#01112b;}.cls-21{fill:#000f26;}</style><linearGradient id="Безымянный_градиент_14" x1="344.49" y1="492.07" x2="344.49" y2="142.85" gradientUnits="userSpaceOnUse"><stop offset="0" stop-color="#0682f2"/><stop offset="1" stop-color="#0682f2"/></linearGradient></defs><title>bird</title><g id="Слой_15" data-name="Слой 15"><rect class="cls-1" width="841.68" height="595.44"/></g><g id="Слой_14" data-name="Слой 14"><path class="cls-2" d="M0,303.28V5.78s248.15,45.73,344.55,48.1c95.82,2.36,362.07,32.5,383,42.75s81.25,56.92,67.49,146.44S713.9,316.93,677,329.59c-33.27,11.39-62.63,43.63-56.53,116.46S514,580.22,462,585.14c-74.78,7.08-255.52-50.42-299-30.23S34.3,543.54,40.59,484,100,377.28,0,303.28Z" transform="translate(1.5 0.72)"/></g><g id="Слой_2" data-name="Слой 2"><path class="cls-3" d="M1.63,270.22-1,23.28s259.73,65.83,341.79,67.8c81.57,2,324.81,29,342.65,37.55s68,38.39,56.31,113-84.54,68.61-116,79.15c-28.32,9.49-53.32,36.34-48.12,97S485,529.51,440.75,533.61c-63.66,5.89-217.52-42-254.49-25.19S76.69,499,82,449.37,145.49,316.89,1.63,270.22Z" transform="translate(1.5 0.72)"/></g><g id="Слой_3" data-name="Слой 3"><path class="cls-4" d="M1.63,270.22,0,51.38s255.74,57.4,329.33,59.17c73.15,1.76,291.26,26,307.25,33.67s61,34.42,50.5,101.29S613,296.7,584.75,306.15c-25.4,8.51-49.48,42.92-44.82,97.32S458.66,503.69,419,507.36c-57.09,5.28-195.05-37.66-228.21-22.58s-98.25-8.49-93.45-52.95S130.63,312.07,1.63,270.22Z" transform="translate(1.5 0.72)"/></g><g id="Слой_4" data-name="Слой 4"><path class="cls-5" d="M59.71,256.91s22.24-1.05,37.6-6.51,29-18.37,32.69-27.08,12-21.25,23.2-30.39" transform="translate(1.5 0.72)"/><path class="cls-5" d="M38.21,232.61s17.9,9.85,31.35,8.43,14.35,1.47,36.9-11.48,21.37-17.78,25.93-23.3c3.39-4.09,14.71-17,17.33-16" transform="translate(1.5 0.72)"/><path class="cls-5" d="M45.83,209.4S66,220.72,98.17,217.92,139.53,201,139.53,201a93.88,93.88,0,0,1,12.33-16" transform="translate(1.5 0.72)"/><path class="cls-5" d="M87,201s17.44.73,23.67-.29c6.65-1.09,37-16.92,37-16.92" transform="translate(1.5 0.72)"/><path class="cls-5" d="M28.47,194.72s10.86,3.6,32.86,0,16.84-10.61,40.17-8.94S151,179,151,179" transform="translate(1.5 0.72)"/><path class="cls-5" d="M38.82,172.11s30.11,8.5,35.22,11.67c11.06,6.85,40.46,2.83,48.46-1.17s27.22-5.67,27.22-5.67" transform="translate(1.5 0.72)"/><path class="cls-5" d="M49.56,159s26.7,16.47,44.4,18,55.76,3,55.76,3" transform="translate(1.5 0.72)"/><path class="cls-5" d="M79.72,163.38s30.91,11.9,37.6,12.73,30.31,1,30.31,1" transform="translate(1.5 0.72)"/><path class="cls-5" d="M148.67,170.27c-6.17-.69-24.67-2.91-28.84-4.82-3.68-1.69-69-25-69-25" transform="translate(1.5 0.72)"/><path class="cls-5" d="M71.67,130.28s32.5,12.22,39.5,13.94,38,20.73,37.5,22.06" transform="translate(1.5 0.72)"/><path class="cls-5" d="M54.5,105.45s29.24,18.66,35.24,22.16c6.44,3.77,63.17,40.2,63.17,40.2" transform="translate(1.5 0.72)"/><path class="cls-5" d="M92.67,104.55a80.36,80.36,0,0,1,28,7.4c13.5,6.66,28.5,55.86,28.5,55.86" transform="translate(1.5 0.72)"/><path class="cls-5" d="M70,88s51.17,15.44,54.67,21,34.19,56.79,34.19,56.79" transform="translate(1.5 0.72)"/><path class="cls-5" d="M31.76,126.87s19.32,1,39.91,13.6,45.65,22.91,45.65,22.91S149.75,174,151,172.11" transform="translate(1.5 0.72)"/><path class="cls-5" d="M31.76,144.63S66.59,149,74,152.78s44.3,24,46.88,25,28.8,0,28.8,0c-11,6.14-33.63,23.89-39.39,27.64-4.81,3.13-18.33,12.55-41.4,29S30,248.63,30,248.63" transform="translate(1.5 0.72)"/></g><g id="Слой_5" data-name="Слой 5"><path class="cls-6" d="M62.83,261.49c-2,1.8-8.73,2.11-10.25-3.21s4.85-6.26,7.15-5.93,6.64,2.42,9.24,2.91S66,258.61,62.83,261.49Z" transform="translate(1.5 0.72)"/><path class="cls-6" d="M30.13,253.72c-2.59,1.78-10.47,1.09-11.4-5.34s6.62-6.51,9.24-5.78,7.33,3.86,10.28,4.84S34.3,250.87,30.13,253.72Z" transform="translate(1.5 0.72)"/><path class="cls-6" d="M35.49,235.05c-2.32.1-7-3.42-5-7.8s6.69-1.49,8,0,3.08,5.28,4.54,7.05S39.22,234.9,35.49,235.05Z" transform="translate(1.5 0.72)"/><path class="cls-6" d="M40.12,212.88c-2.81.73-9.42-2.33-8.21-8.19s7.77-3.57,9.81-2.12,5.14,5.64,7.39,7.41S44.62,211.71,40.12,212.88Z" transform="translate(1.5 0.72)"/><path class="cls-6" d="M26,199.73c-2.4,1.47-9.31.41-9.71-5.45s6.25-5.53,8.52-4.72,6.21,3.88,8.75,4.93S29.88,197.37,26,199.73Z" transform="translate(1.5 0.72)"/><path class="cls-6" d="M34.38,177.6c-2.88.92-8.24-2.12-5.36-8.57s8.43-4.26,9.93-2.76,3.21,5.92,4.82,7.75S39,176.11,34.38,177.6Z" transform="translate(1.5 0.72)"/><path class="cls-6" d="M47,162.11c-2.9.24-9.62-3.8-8.23-9.26s8.08-2.18,10.14-.44,5.15,6.29,7.42,8.37S51.67,161.71,47,162.11Z" transform="translate(1.5 0.72)"/><path class="cls-6" d="M79.18,167.23a4.24,4.24,0,0,1-5-5.33c1-4.2,5.19-3,6.45-2s3.09,3.69,4.47,4.82S82.15,166.16,79.18,167.23Z" transform="translate(1.5 0.72)"/><path class="cls-6" d="M28.9,150.28c-2.74,1.53-10.51.11-10.84-6.36s7.18-5.87,9.72-4.89,6.93,4.51,9.77,5.76S33.31,147.83,28.9,150.28Z" transform="translate(1.5 0.72)"/><path class="cls-6" d="M51.31,144.16c-2.72.53-9.42-2.64-8.57-8s7.46-2.9,9.56-1.45S57.69,140.2,60,142,55.69,143.32,51.31,144.16Z" transform="translate(1.5 0.72)"/><path class="cls-6" d="M28.89,128.61c-2.93.78-10.86-2-10.76-7.68s7.8-3.66,10.35-2.31,6.85,5.3,9.7,6.95S33.6,127.36,28.89,128.61Z" transform="translate(1.5 0.72)"/><path class="cls-6" d="M68.13,135.13c-2.73,1.14-8.85-1.29-7.33-7.73s7.64-4.84,9.5-3.54,4.57,5.39,6.6,7S72.51,133.29,68.13,135.13Z" transform="translate(1.5 0.72)"/><path class="cls-6" d="M50.14,109c-2.85.24-8.77-3.83-6.62-9.33s8.15-2.19,9.89-.43,4.07,6.34,6,8.43S54.72,108.6,50.14,109Z" transform="translate(1.5 0.72)"/><path class="cls-6" d="M66,91.81c-2.7,1-8-1.74-5.71-7.94s7.79-4.3,9.33-2.93,3.48,5.49,5.14,7.18S70.32,90.26,66,91.81Z" transform="translate(1.5 0.72)"/><path class="cls-6" d="M89.27,109.91c-2.37,1.58-8.81.45-8.76-5.82s6.3-5.93,8.38-5.07,5.58,4.16,7.9,5.28S93.09,107.39,89.27,109.91Z" transform="translate(1.5 0.72)"/><path class="cls-6" d="M90.44,205.81a5.52,5.52,0,0,1-8.24-4.52c-.42-5.44,5.19-5.53,7.1-4.91s5.28,3.27,7.43,4.1S93.66,203.39,90.44,205.81Z" transform="translate(1.5 0.72)"/></g><g id="Слой_7" data-name="Слой 7"><path class="cls-7" d="M494.42,249,528,295.33s25.5,32.95,6.25,46.7-81,0-81,0l-32.31-85.76,11.81-13.49L494.42,249" transform="translate(1.5 0.72)"/></g><g id="Слой_6" data-name="Слой 6"><path class="cls-8" d="M423.22,256.81s40.4,9,70.4,1.31S427,274.38,427,274.38l-3.73-17.57" transform="translate(1.5 0.72)"/><path class="cls-8" d="M429,287.52l-2.5-14.25s37.54,2.25,71.27-5.75-46.06,20.83-64,22.91S429,287.52,429,287.52Z" transform="translate(1.5 0.72)"/><path class="cls-8" d="M428.69,288.2s65.56,1.08,85.81-6.17-55.25,32-82.5,25S428.69,288.2,428.69,288.2Z" transform="translate(1.5 0.72)"/><path class="cls-8" d="M433.75,329.53s35.08-9.43,85.5-26.75C568,286,426,306.28,426,306.28Z" transform="translate(1.5 0.72)"/><path class="cls-8" d="M451.5,332l-7-12.42s87,4.67,94.25-1.08S520.12,339,451,336.78,451.5,332,451.5,332Z" transform="translate(1.5 0.72)"/><path class="cls-8" d="M448.5,342v8s81.6,3.26,90.43-13.12S533,334.85,445,333.28,448.5,342,448.5,342Z" transform="translate(1.5 0.72)"/></g><g id="Слой_8" data-name="Слой 8"><path class="cls-9" d="M619.75,183.53s-.53,6-1,12.52c-.48,7.15-.85,14.9-.28,16,1.09,2.05,21.84,1.8,24.25,3,5,2.5,11.25,24.5,9.5,26.25s18.25-5.25,19-40S621.25,180.78,619.75,183.53Z" transform="translate(1.5 0.72)"/><path class="cls-10" d="M620.5,196.28s39.75-.75,37,15.25.25,23.75-5.25,29.75c-.48.53-1.88,1.87-2.77,1.49-1.32-.56-.39-4.45-.23-9,.35-9.7-3-18.15-3.65-18.06-.2,0,.1,2.21-.35,1.56-2.75-4-27.06,1.89-29.5-7-1.46-5.3,4.72-13.92,4.75-14Z" transform="translate(1.5 0.72)"/></g><g id="Слой_9" data-name="Слой 9"><path class="cls-11" d="M350.14,146.1s27.61,15.82,42.11,11.75S438,168,438.75,168.53s6.5,0,6.5,0l-13.56-5s22.81.78,30.56,3,39.5,6.23,43,4,20-4.75,20-4.75l-3.75-3.25s25,6.5,27.25,3.5a22.76,22.76,0,0,0,3.25-7.38l6.25-1.12s3.75-3.25-6.75-10,16.75,4.25,16.75,4.25l-9-10,22.25,8.75-9.75-10.75s31.5,12.75,42,19.75,10.75,35.75,9.5,47.5S598.5,226.78,583,223.28s-56.5,13.25-66.75,18.25-56.5,19.75-93.5,13S222.88,211,222.88,211s-60.63-12.45-76.63-16.7-5.78-4.75-5.78-4.75l7.16-1.5s-8.12-1.5-10.38-5,8,.5,9-.25-8.14-6.94-9.32-5.84,10.84-4.34,10.7-4.13-8.13-5-8.13-5,43.5-16.6,54.75-17.31,95.25-7.65,95.25-7.65l60.64,3.25" transform="translate(1.5 0.72)"/><path class="cls-12" d="M599.67,224.28h0c.22-.08,16.3-6.11,16-7-.37-1.09-27.07.4-64.67,6-20,3-36.74,13.14-54,13.33a460.82,460.82,0,0,1-81-6.33c-18-3-12.93-3.11-46-14-52.9-17.41-106.33-14.67-106.33-14.67s-18-1.66-42.67-3.33-45.3-13.84-71.33-10.67c-1.35.17-13.67,1.67-13.67,3.67s10.73,3.22,14,3.67c42,5.68,114.16,30.88,114,31.45,0,.11-.87,0-2.66-.45C239,220.61,372,235.28,372,235.28L424.33,255A207.35,207.35,0,0,0,460.79,256C502,253.61,508.34,240.7,548,236.28,548,236.28,576.57,233.09,599.67,224.28Z" transform="translate(1.5 0.72)"/></g><g id="Слой_13" data-name="Слой 13"><path class="cls-13" d="M164.78,161.78a156.3,156.3,0,0,0,16.55-.17c12.26-.89,36.17,7.34,36.17,7.34l.67-9.08s-18.63-.45-24.67-1.68C188,157.07,180,154.11,174,149s-2.17,2.83-2.17,2.83,17.35,7.67,19.35,8.5-27.36-7.17-27.36-7.17v2.67s15.83,2.56,18.54,3.83-18.41-2.83-20,.84S164.78,161.78,164.78,161.78Z" transform="translate(1.5 0.72)"/><path class="cls-13" d="M167,178.78l2.44-3.51S187,187.78,189.33,188s9.84,5.76,28-1.66,5.55,9.24,5.55,9.24-50.75-5-59.07-1.5-.81-3.5-.81-3.5,19.83.17,23.33.5-2.77-2.71-4-3.08c-5.71-1.77-24.25-4.25-23.47-4.58a8.14,8.14,0,0,0,2-1.8s17.14,3.63,17.64,3S168.13,176.78,167,178.78Z" transform="translate(1.5 0.72)"/><path class="cls-13" d="M160.63,207.9l3.18-3.37s34.84,15.87,48.08,14.75-2,4-2,4S167.61,210.05,160.63,207.9Z" transform="translate(1.5 0.72)"/><path class="cls-13" d="M151,213.93l2.2-4.53s7.57,6.21,23.3,9.75c18.5,4.17,8.5,2.38,32.75,4s1.88,2.75,1.88,2.75-54.82-2.37-61.41,0-2.09-4.12-2.09-4.12,25.75,2.21,29.75,1.54S150.23,215.5,151,213.93Z" transform="translate(1.5 0.72)"/><path class="cls-13" d="M163.12,237.9l2.88-3.5s42.32,13.25,54.54,10.63,3,5.37,3,5.37S162.57,234.59,163.12,237.9Z" transform="translate(1.5 0.72)"/><path class="cls-13" d="M140.47,239.83l.78-2.6s33.63,4.17,80.5,10.42,8.75,6.13,8.75,6.13S182.38,242.4,176,244.9s-34.3,4.38-35.59,5.5-.78-3.25-.78-3.25,22.79-2.77,29.64-3.32S140.81,239.26,140.47,239.83Z" transform="translate(1.5 0.72)"/><path class="cls-13" d="M176,253.78l1.5-3.89s10.25,14.76,59.5,21.26,0,4.63,0,4.63-29.37-8.14-38.87-1.07-1.42-2.35-1.42-2.35a57.73,57.73,0,0,1,20.58-2.19c11.46.86-29.91-4.89-31-4.39s-1.76-2.75-1.76-2.75,16.82,2.5,18.16,2.75S176,253.78,176,253.78Z" transform="translate(1.5 0.72)"/><path class="cls-13" d="M196.25,299.76s5.38-15.24,47.63,6.39,1.12-5.8,1.12-5.8-67.29-19-83.75-37.46c-2.23-2.5-3.09,4.14-3.09,4.14s36,19,38.55,19.08-48.58-9.46-48.58-9.46v4.88s55.4,7.37,58.82,9.87-14.31,3-14.31,3Z" transform="translate(1.5 0.72)"/><path class="cls-13" d="M176,302.61l2.5-1.37s19.83,14,28.09,18.69c9.09,5.17,13.79,17,53.79,14.6,40.53-2.41,12.51,3.6,9.87,3.88-13.24,1.4-52-4.45-53.09-4.38s-30.46-11.88-42.43-12.38-.85-3.37-.85-3.37,39.87,13.25,42.5,13.5-9.63-7.38-9.63-7.38-38.75-16.12-41.5-15.25,2.38-3.62,2.38-3.62,32.57,14.33,34.25,15.21C205.79,322.78,176.15,300.85,176,302.61Z" transform="translate(1.5 0.72)"/><path class="cls-13" d="M253.5,353.53l4-2.25s17.65,19.16,32.75,14,12.25,11.06,12.25,11.06S269,365.9,264.88,366.28s-27.25,4.75-29.63,5.12-.87-5.62-.87-5.62,7.5,2.37,24.62-.38-22.75-9.87-22.75-9.87l3.34-4.25s23.29,11.25,23.91,9.62S253.5,353.53,253.5,353.53Z" transform="translate(1.5 0.72)"/><path class="cls-13" d="M187.34,347.64l1.74-3.4S209,362.29,212.5,363.78s23.75,18.83,23.75,18.83S250,392.41,264,393.1s10.75.15,26.5,2.17-1.75,6.07-1.75,6.07-49.5-9.31-57.25-16.81-31.43-3.25-31.43-3.25l1.18-4.94s22.25,2.22,24.75,2.45-5.82-9.51-19.41-13.26-26.53-7-26.53-7l3.69-4.25,21.79,8.25S188.17,346.26,187.34,347.64Z" transform="translate(1.5 0.72)"/><path class="cls-13" d="M121.75,401.34l-4,7.91s16.5,1.88,33.25,3.45,62.25,3.58,75,8.58S259.25,426,259.25,426s29.25-2,31,0,1.25-5.75,1.25-5.75-33.28,6.17-49.64,1.5c-14-4-9.29-3.25-24.7-10s-33.66-22.84-33.66-22.84l-3.44,2.59s33.94,20.59,34.69,22.92-42.59-9.42-44-15.17-4.64,4.19-4.64,4.19,27.18,7.16,28.68,9.23S121.75,405.64,121.75,401.34Z" transform="translate(1.5 0.72)"/><path class="cls-13" d="M181.79,443.62l1-4.46s35.12,10.67,38.75,10.67,28.75,4.45,28.75,4.45S271.84,453,282.92,447s11.58,10.77,11.58,10.77a122.63,122.63,0,0,0-22.19-1.59c-4.82.1-7.74.46-20.31,1.09h0l-11.25.5c-6.18.27-11.19,1-17.62,1.37,0,0-5.67.31-30.88-1.37h0s-40.19,4.49-44.5,7.41-2-4.16-2-4.16,34.56-3.24,36-5-41.49-4.28-43.11-2.26,2.93-6.77,2.93-6.77,32.54,4.9,38.14,5.52c6.75.75,16.64,3.07,22.25,3.51,4.31.33,7.82.7,10.13.86,10.35.72,19.14,2.16,21.59-.86a.54.54,0,0,0,.12-.22C234.25,452.6,181.79,443.62,181.79,443.62Z" transform="translate(1.5 0.72)"/><path class="cls-13" d="M180.38,129l4.87-3.75s6,14,20.25,18.37A262.76,262.76,0,0,0,236,150.5l-2.87,5.17s-31.25-10.7-34.75-11.13-28.44-3.14-33.6-3.26-1.9-5.5-1.9-5.5,9,6.08,27.16,6.37-18.22-5.87-18.22-5.87l1.56-3.28s14,5.65,15.5,4S180.38,129,180.38,129Z" transform="translate(1.5 0.72)"/></g><g id="Слой_12" data-name="Слой 12"><path class="cls-6" d="M185.5,295a6.58,6.58,0,0,1,7.63-4.38c6.12.88,7.27,4.57,6.87,7-.34,2-2.87,5.89-6.62,4.76S183.88,300.78,185.5,295Z" transform="translate(1.5 0.72)"/><path class="cls-6" d="M191.13,275.4c-.9-2-.75-7.75,7.75-3.87s0,6.75,0,6.75S194,281.68,191.13,275.4Z" transform="translate(1.5 0.72)"/><path class="cls-6" d="M180.5,266.65c-1-1.42-2.25-5.5,1.63-6.75s7.26,3.63,7.37,6S185.53,273.83,180.5,266.65Z" transform="translate(1.5 0.72)"/><path class="cls-6" d="M168,247.9c-1.37,1.43-1.87,4.75,4.13,6.75s9.25,1.16,10-1.25C183.25,249.79,177.56,237.92,168,247.9Z" transform="translate(1.5 0.72)"/><path class="cls-6" d="M134.75,233.28c-.34,2,.63,6.37,3.38,7.5s8.25-1.75,8.12-3.13-2.71-5.87-5.37-6.59C139.17,230.61,135.49,228.81,134.75,233.28Z" transform="translate(1.5 0.72)"/><path class="cls-6" d="M143.5,219.53c-1.61,1.47-2.62,4.87,1.25,8.62s7.91-.93,8.38-3.12C153.7,222.32,151.13,212.6,143.5,219.53Z" transform="translate(1.5 0.72)"/><path class="cls-6" d="M147.63,204.53c-2.16,0-9,.94-2.13,8.37s9.9,4.07,10.88,1.5C157.54,211.32,157.69,204.51,147.63,204.53Z" transform="translate(1.5 0.72)"/><path class="cls-6" d="M159.75,201.65c-1.54.55-5,3-1.87,6.25s7.13,2.33,8.62.75C168.17,206.89,170.7,197.78,159.75,201.65Z" transform="translate(1.5 0.72)"/><path class="cls-6" d="M156.61,193.9c-.56-1.84-.86-5.87,5-5.87s5.22,5.76,4,7.5S158.54,200.26,156.61,193.9Z" transform="translate(1.5 0.72)"/><path class="cls-6" d="M154.5,184.78c-1.6-1.06-3.5-3.25,3.38-6.88s7.57,4,6.5,5.88C163.16,185.94,159.07,187.81,154.5,184.78Z" transform="translate(1.5 0.72)"/><path class="cls-6" d="M164.78,177.65c-1.1-1.58-2.41-7.62,3.22-7s6.33,2.82,5.88,4.63C173.3,177.56,168.51,183,164.78,177.65Z" transform="translate(1.5 0.72)"/><path class="cls-6" d="M157.75,161s-3.22,3.25,3.64,6.12,5.44-4.48,4.49-6.12S162.13,157.4,157.75,161Z" transform="translate(1.5 0.72)"/><path class="cls-6" d="M161.39,150.4s-10.19-2.61-2.51,5.13S168.28,151.78,161.39,150.4Z" transform="translate(1.5 0.72)"/><path class="cls-6" d="M170.5,146c-1.65-.12-7-.63-2.5,6.12s7-.29,7.63-2.17C176.14,148.44,176.74,146.5,170.5,146Z" transform="translate(1.5 0.72)"/><path class="cls-6" d="M156,142.53c-1.55-2.16-8.28-10.13,4.85-9.5s7.89,8.95,5.38,10.5C164.06,144.88,157.92,145.18,156,142.53Z" transform="translate(1.5 0.72)"/><path class="cls-6" d="M175.45,130.63s-12.57-8.1-7.07,3,6.78,2.42,7.54.69C176.3,133.44,177.61,132,175.45,130.63Z" transform="translate(1.5 0.72)"/><path class="cls-6" d="M182.75,120.9c-2.14,0-8.75-.14-5.12,6.87s8.88,1.14,10-1.12C188.46,125,189.13,120.77,182.75,120.9Z" transform="translate(1.5 0.72)"/><path class="cls-6" d="M157.5,236.05c-.78-2-1.87-8.65,6.63-5.65s4.37,8.32,2.32,9.75S160.11,242.81,157.5,236.05Z" transform="translate(1.5 0.72)"/><path class="cls-6" d="M134.69,252.15c-1.52-1.28-5.56-3.5,2.94-7.37s5.72,5.28,4.44,6.87A5.31,5.31,0,0,1,134.69,252.15Z" transform="translate(1.5 0.72)"/><path class="cls-6" d="M153.38,265.65c-1.1-2.09-4.63-11.62,5.25-7.87s4.65,8.17,2.62,9.62C159.61,268.58,156,270.7,153.38,265.65Z" transform="translate(1.5 0.72)"/><path class="cls-6" d="M142.63,283c-1.51-1.69-4.55-7,.91-9s8.8,3.63,9,6.37C152.65,283,149,290.19,142.63,283Z" transform="translate(1.5 0.72)"/><path class="cls-6" d="M171,301s-3.5-6.25,3-5.88,6.69,5.48,5.48,7.46C178.36,304.44,174.63,306,171,301Z" transform="translate(1.5 0.72)"/><path class="cls-6" d="M162.5,310c-1.38-1.3-11.25-7.25,1-8.63s6.92,6.2,5.25,7.88C167.64,310.4,164.84,312.23,162.5,310Z" transform="translate(1.5 0.72)"/><path class="cls-6" d="M164.39,323.15s-1.65-7.25,5.67-8.62,7.75,5.52,6.69,7.87C175.48,325.23,168.28,331,164.39,323.15Z" transform="translate(1.5 0.72)"/><path class="cls-6" d="M182.75,339.9s-4.12,5,3.75,9.13,5.11-5.14,4.25-7S187.25,336.28,182.75,339.9Z" transform="translate(1.5 0.72)"/><path class="cls-6" d="M175.88,358.53c-1.17-1.65-2.63-6.13,2.25-7.75s8.67,3.12,8.67,3.12,2.08,2.5-1.92,5.88S177.18,360.39,175.88,358.53Z" transform="translate(1.5 0.72)"/><path class="cls-6" d="M229.5,354.15s-7.87-5.25,0-10,11.27,3.06,12,6.38C242.17,353.59,242.38,362.15,229.5,354.15Z" transform="translate(1.5 0.72)"/><path class="cls-6" d="M248.38,352.53c-1.39-1.91-3.63-10.32,4.5-8.29s9.81,4.35,9.37,7.29C261.74,355,255.15,361.91,248.38,352.53Z" transform="translate(1.5 0.72)"/><path class="cls-6" d="M228.38,371.15c-.67-1.81-1.38-7.37,2.37-7.37s6.75.5,8.5,5.12S235.5,374,235.5,374,229.85,375.2,228.38,371.15Z" transform="translate(1.5 0.72)"/><path class="cls-6" d="M194.25,382.4c-1.69-2.5-4.87-10.37,3.75-11.5s9.05,6.51,8.38,9.63S200.63,391.87,194.25,382.4Z" transform="translate(1.5 0.72)"/><path class="cls-6" d="M174,392s-5.25-8,3.63-9.25,10.07,4.68,9.17,7.5C185.81,393.35,180.25,398.78,174,392Z" transform="translate(1.5 0.72)"/><path class="cls-6" d="M161.63,403.9s-5.75-6.15,3.12-8.63,7.87,5.94,7.13,8.63C171.2,406.38,168.88,411.4,161.63,403.9Z" transform="translate(1.5 0.72)"/><path class="cls-6" d="M112.38,406c-.88-3.45.12-14.44,8.75-11.22s5.87,9.84,5.87,9.84S116.37,421.81,112.38,406Z" transform="translate(1.5 0.72)"/><path class="cls-6" d="M177.18,444c-.71-2.34-7.84-6.34,4.49-8.67s6.11,9.44,3.66,11C183.55,447.42,178.29,447.63,177.18,444Z" transform="translate(1.5 0.72)"/><path class="cls-6" d="M134.83,454.61s-8.16-4.5,1.5-9.33,9.91,2.2,9.17,4.67C144.67,452.74,140.33,458.78,134.83,454.61Z" transform="translate(1.5 0.72)"/><path class="cls-6" d="M142,465.45c-.24-2.36-2.5-11.34,7.33-6s.67,8.83.67,8.83S142.53,470.78,142,465.45Z" transform="translate(1.5 0.72)"/><path class="cls-14" d="M561.5,171s15.75,20.5,40.75,20S562.75,163.53,561.5,171Z" transform="translate(1.5 0.72)"/></g><g id="Слой_10" data-name="Слой 10"><path class="cls-15" d="M234.25,146.1s110.15-7.31,115.89,0,2.24,38.3,21.74,55.8,50.32,31.51,62.95,76.58c14.08,50.29,3.38,28.8,16.5,48.83,9.76,14.89,52.05,111.59-24.2,151.34S279,458.59,277.18,443.75s95.49,1.2,95.49,1.2L310.38,338.53,217.16,225.4l17.09-35V146.1" transform="translate(1.5 0.72)"/><path class="cls-16" d="M320.92,184s36.76-6.2,37.48-4.09" transform="translate(1.5 0.72)"/><path class="cls-16" d="M319.78,162.45s23.83-4.36,33.86-4.6" transform="translate(1.5 0.72)"/><path class="cls-16" d="M318.83,208.61s30.69-6.58,49.09-10.79" transform="translate(1.5 0.72)"/><path class="cls-16" d="M329.33,237.71s28.29.95,66.31-16.91" transform="translate(1.5 0.72)"/><path class="cls-16" d="M348.58,259.7s52.48-20.41,62.79-24.25" transform="translate(1.5 0.72)"/><path class="cls-16" d="M367.75,286.28" transform="translate(1.5 0.72)"/><path class="cls-16" d="M368.78,288.2c.72-.27,32.38-14.8,62.91-19.34" transform="translate(1.5 0.72)"/><path class="cls-16" d="M387.77,319.61s38.83-3.86,55.69-5.26" transform="translate(1.5 0.72)"/><path class="cls-16" d="M429.07,346.85s23.53-.76,30.85-1.79" transform="translate(1.5 0.72)"/><path class="cls-12" d="M428,447.28c-26.85,18.55-68.84,18.79-87,22l-1-57-35,61a163.81,163.81,0,0,0,37.74,14.56c13.68,3.46,45.34,10.34,78-5.25,7.86-3.75,29.7-14.53,41.8-38.14A91,91,0,0,0,471.5,414a111.29,111.29,0,0,0-.5-25.33,152.42,152.42,0,0,0-3-16.92,210.79,210.79,0,0,0-11.5-35.25C457.26,341.93,466.89,420.41,428,447.28Z" transform="translate(1.5 0.72)"/><path class="cls-12" d="M389.88,484.78" transform="translate(1.5 0.72)"/></g><g id="Слой_11" data-name="Слой 11"><path class="cls-17" d="M242.5,178.78s-32.75-9.75-30.5-17,32.75-2.25,32.75-2.25,76.75,21,76.75,24.5-40.75,3.75-40,3.75S247.75,180,242.5,178.78Z" transform="translate(1.5 0.72)"/><path class="cls-17" d="M224.75,198.53c-5.22-3.36-41.24-28.85,4.28-24.46,46.22,4.46,90.33,31.48,90.72,34C321.5,219,239.5,208,224.75,198.53Z" transform="translate(1.5 0.72)"/><path class="cls-17" d="M220,237.07s-20.31-4.58-10.25-25.72,30.35-10.21,30.35-10.21l92.15,41S232.7,248.8,220,237.07Z" transform="translate(1.5 0.72)"/><path class="cls-17" d="M229.75,259.7s-36.75-31.57,13.5-19.87,105.75,19,106.5,19.87-35.5,11.58-40.5,11.83S261,276.63,229.75,259.7Z" transform="translate(1.5 0.72)"/><path class="cls-17" d="M235.75,286.28c-3.46-4.73-7.91-22.75,14.06-18.75,23.52,4.28,108.44,10.25,117.94,18.75s-49,14.47-71.25,11.36S245.45,299.54,235.75,286.28Z" transform="translate(1.5 0.72)"/><path class="cls-18" d="M249,317.78s-21.09-20.07,9.2-22.29,108.05,18.79,126.05,22.29S345.5,331,341.5,329.53,262.5,333.28,249,317.78Z" transform="translate(1.5 0.72)"/><path class="cls-19" d="M276.5,350.58s-43.82-20.67,3.47-23,133.28,10.19,147,17.19-44.51,12.31-59.25,16.75C345.75,368.16,338.75,375.64,276.5,350.58Z" transform="translate(1.5 0.72)"/><path class="cls-20" d="M308.75,386.53c-5.48-3.36-50.38-35,6.06-25s149.44,8.5,154.44,15.75S335.36,402.83,308.75,386.53Z" transform="translate(1.5 0.72)"/><path class="cls-21" d="M293.94,411.53c-6.68-2.58-27.81-17.9,15.72-23.95s94.78,19.49,125,30.45c8.17,3,24,6.75,33.63,8.75s-49.38,5.5-52.63,5S322.73,422.65,293.94,411.53Z" transform="translate(1.5 0.72)"/><path class="cls-21" d="M296.75,438.28c-5.66-2.83-35.28-26.86,10.74-22.93S469.55,450.64,452,458.16C420.22,471.78,333.48,456.66,296.75,438.28Z" transform="translate(1.5 0.72)"/><path class="cls-21" d="M288.25,460.15c-2.05-1.87-14.15-13.12-11.25-19,2-4,10.26-4,19.75-2.9C337.5,443,407,470,407,470s16.87,7.35,18.5,8.75c0,0,.06.09.14.18a1.91,1.91,0,0,0,1.11.44c.09.28-16.3,9.44-37.5,12.38-21.47,3-38.64-1.7-52.47-5.47-19.07-5.2-29.74-11.79-32.65-13.66A101.38,101.38,0,0,1,288.25,460.15Z" transform="translate(1.5 0.72)"/><path class="cls-17" d="M232.88,160.1s-23.14-6.29,1-14S321.5,166,321.5,164.25,323.75,180,232.88,160.1Z" transform="translate(1.5 0.72)"/></g></svg>