<?xml version="1.0" encoding="utf-8"?>
<!-- Generator: Adobe Illustrator 20.1.0, SVG Export Plug-In . SVG Version: 6.00 Build 0)  -->
<svg version="1.1" id="Слой_1" xmlns="http://www.w3.org/2000/svg" xmlns:xlink="http://www.w3.org/1999/xlink" x="0px" y="0px"
	 viewBox="0 0 850 1092.4" style="enable-background:new 0 0 850 1092.4;" xml:space="preserve">
<style type="text/css">
	.st0{fill:#70B567;}
	.st1{fill:#272525;}
	.st2{fill:#50AA55;}
	.st3{fill:#D15242;}
	.st4{fill:#A52C2B;}
	.st5{fill:#CC452B;}
	.st6{fill:#CB472B;}
	.st7{fill:#DDA4C6;}
	.st8{fill:#DC90B9;}
	.st9{fill:#C84F98;}
	.st10{fill:#83265D;}
	.st11{fill:#257D99;}
	.st12{fill:#E3D360;}
	.st13{fill:#A4292A;}
	.st14{fill:#6CBEDB;}
	.st15{fill:#76C0D1;}
	.st16{fill:#ECBFA5;}
	.st17{fill:#267A93;}
	.st18{fill:#53B2AE;}
	.st19{fill:#797AB6;}
	.st20{fill:#6463A9;}
	.st21{fill:#7C7CB8;}
	.st22{fill:#6D6CAE;}
	.st23{fill:#474899;}
	.st24{fill:#3F4490;}
	.st25{fill:#E0B665;}
	.st26{fill:#F7F080;}
	.st27{fill:#E9C384;}
	.st28{fill:#F1CB79;}
	.st29{fill:#CC9F51;}
	.st30{fill:#BB8C40;}
	.st31{fill:#C6A66B;}
	.st32{fill:#F0C55D;}
	.st33{fill:#D2A256;}
	.st34{fill:#C66B40;}
	.st35{fill:#896135;}
	.st36{fill:#75543C;}
	.st37{fill:#534734;}
	.st38{fill:#432A6D;}
	.st39{fill:#A4CB83;}
	.st40{fill:#272525;stroke:#272525;stroke-miterlimit:10;}
	.st41{fill:#B05EA0;}
	.st42{fill:#AAD7EC;}
	.st43{fill:#9CD3F5;}
</style>
<g>
	<polygon class="st0" points="331.5,68.8 325.3,129.2 276.1,93.7 	"/>
</g>
<g>
	<polygon class="st0" points="500.8,226.4 515.8,122.4 577.8,207.4 	"/>
	<g>
		<path class="st1" d="M503.1,227.1c4.4-30.3,8.7-60.6,13.1-91c0.6-4.3,1.3-8.7,1.9-13c-1.5,0.2-3,0.4-4.6,0.6
			c18.1,24.8,36.1,49.6,54.2,74.3c2.6,3.6,5.2,7.1,7.8,10.7c0.5-1.2,1-2.4,1.5-3.7c-25.7,6.3-51.3,12.7-77,19
			c-3.1,0.8-1.8,5.6,1.3,4.8c25.7-6.3,51.3-12.7,77-19c1.4-0.4,2.4-2.4,1.5-3.7c-18.1-24.8-36.1-49.6-54.2-74.3
			c-2.6-3.6-5.2-7.1-7.8-10.7c-1.1-1.5-4.2-1.8-4.6,0.6c-4.4,30.3-8.7,60.6-13.1,91c-0.6,4.3-1.3,8.7-1.9,13
			C497.8,228.9,502.6,230.2,503.1,227.1z"/>
	</g>
</g>
<g>
	<polygon class="st2" points="577.8,207.9 588.8,161.9 515.8,122.9 	"/>
	<g>
		<path class="st1" d="M580.2,208.6c3.7-15.3,7.3-30.7,11-46c0.3-1-0.2-2.3-1.1-2.8c-24.3-13-48.7-26-73-39c-2-1.1-5,1.3-3.4,3.4
			c18.1,24.8,36.1,49.6,54.2,74.3c2.6,3.6,5.2,7.1,7.8,10.7c1.9,2.6,6.2,0.1,4.3-2.5c-18.1-24.8-36.1-49.6-54.2-74.3
			c-2.6-3.6-5.2-7.1-7.8-10.7c-1.1,1.1-2.3,2.3-3.4,3.4c24.3,13,48.7,26,73,39c-0.4-0.9-0.8-1.9-1.1-2.8c-3.7,15.3-7.3,30.7-11,46
			C574.6,210.4,579.4,211.7,580.2,208.6z"/>
	</g>
</g>
<g>
	<polygon class="st3" points="341.3,442.7 267.3,403.4 303.8,328.6 379.5,364.7 	"/>
	<g>
		<path class="st1" d="M342.6,440.5c-24.7-13.1-49.3-26.2-74-39.2c0.3,1.1,0.6,2.3,0.9,3.4c12.2-24.9,24.3-49.9,36.5-74.8
			c-1.1,0.3-2.3,0.6-3.4,0.9c25.2,12,50.4,24,75.7,36c-0.3-1.1-0.6-2.3-0.9-3.4c-11.1,22.7-22.3,45.5-33.4,68.2
			c-1.6,3.3-3.2,6.5-4.8,9.8c-1.4,2.9,2.9,5.4,4.3,2.5c11.1-22.7,22.3-45.5,33.4-68.2c1.6-3.3,3.2-6.5,4.8-9.8
			c0.6-1.1,0.4-2.8-0.9-3.4c-25.2-12-50.4-24-75.7-36c-1.1-0.5-2.8-0.4-3.4,0.9c-12.2,24.9-24.3,49.9-36.5,74.8
			c-0.6,1.2-0.4,2.8,0.9,3.4c24.7,13.1,49.3,26.2,74,39.2C342.9,446.3,345.4,442,342.6,440.5z"/>
	</g>
</g>
<g>
	<polygon class="st4" points="341.3,442.7 386,430.7 418.9,356.7 379.5,364.7 	"/>
	<g>
		<path class="st1" d="M342,445.1c8.4-2.3,16.8-4.5,25.2-6.8c5.1-1.4,10.3-2.8,15.4-4.1c1.9-0.5,4.4-0.7,5.6-2.4
			c1.3-1.7,1.9-4.3,2.8-6.2c1.9-4.4,3.9-8.7,5.8-13.1c4.9-11.1,9.9-22.3,14.8-33.4c3.1-7,6.2-14.1,9.4-21.1c0.9-2-0.6-4.1-2.8-3.7
			c-8.9,1.8-17.9,3.6-26.8,5.4c-4.9,1-12.6,0.6-15,5.5c-9.2,18.8-18.4,37.6-27.6,56.5c-3.2,6.6-6.4,13.1-9.6,19.7
			c-1.4,2.9,2.9,5.4,4.3,2.5c7.7-15.7,15.3-31.3,23-47c4.3-8.9,8.7-17.7,13-26.6c0.2-0.4,2.4-4,2.2-4.4c1.6,2.8-2.9,0.7-0.7,1
			c0.5,0.1,1.1-0.2,1.6-0.3c2.3-0.5,4.5-0.9,6.8-1.4c10.1-2,20.2-4.1,30.3-6.1c-0.9-1.2-1.9-2.4-2.8-3.7
			c-7.3,16.3-14.5,32.7-21.8,49c-3.4,7.7-7.9,15.5-10.4,23.5c-0.1,0.2-0.7,1.2-0.6,1.4c-0.3-0.6,2.9-1.5-0.5-0.6
			c-4.6,1.2-9.1,2.5-13.7,3.7c-9.7,2.6-19.3,5.2-29,7.8C337.5,441.1,338.8,445.9,342,445.1z"/>
	</g>
</g>
<g>
	<polygon class="st5" points="303.8,328.6 345.3,323 418.9,356.7 379.5,364.7 	"/>
	<g>
		<path class="st1" d="M304.5,331.1c8.4-1.1,16.7-2.3,25.1-3.4c4.7-0.6,9.3-1.3,14-1.9c0.9-0.1,3.1,0,1.3-0.4
			c-2.1-0.5,0,0.3,0.4,0.5c6.9,3.8,14.5,6.6,21.7,9.9c10.5,4.8,21.1,9.6,31.6,14.5c6.3,2.9,12.6,5.8,19,8.7c0.2-1.5,0.4-3,0.6-4.6
			c-8.5,1.7-17,3.4-25.4,5.1c-4.1,0.8-8.7,1.2-12.7,2.6c-2.5,0.9,0.6-0.7,0.5,0.4c0-0.1-1.8-0.9-2-0.9
			c-18.3-8.7-36.5-17.4-54.8-26.1c-6.3-3-12.5-6-18.8-9c-2.9-1.4-5.4,2.9-2.5,4.3c15.9,7.6,31.8,15.1,47.6,22.7
			c8.4,4,16.7,8,25.1,11.9c1.6,0.8,3.1,1.7,4.9,1.7c2.9-0.1,6.2-1.2,9.1-1.8c10.1-2,20.2-4.1,30.3-6.1c2-0.4,2.5-3.7,0.6-4.6
			c-16-7.3-32-14.6-48-22c-7.9-3.6-15.8-7.2-23.7-10.8c-4.7-2.2-10.1-0.3-15.1,0.3c-10.1,1.4-20.2,2.7-30.2,4.1
			C300,326.7,301.3,331.5,304.5,331.1z"/>
	</g>
</g>
<g>
	<g>
		<path class="st6" d="M772.6,194.5c-8,24.1-16,48.2-23.9,72.3c-1,3.1,3.8,4.4,4.8,1.3c8-24.1,16-48.2,23.9-72.3
			C778.5,192.8,773.6,191.5,772.6,194.5L772.6,194.5z"/>
	</g>
</g>
<g>
	<g>
		<path class="st6" d="M797.8,247c-24.1-8-48.2-16-72.3-23.9c-3.1-1-4.4,3.8-1.3,4.8c24.1,8,48.2,16,72.3,23.9
			C799.5,252.9,800.8,248,797.8,247L797.8,247z"/>
	</g>
</g>
<g>
	<polygon class="st7" points="693.5,268.2 648.8,360.4 717.6,371 	"/>
	<g>
		<path class="st1" d="M691.3,266.9c-13,26.9-26,53.8-39.1,80.7c-1.9,3.8-3.7,7.7-5.6,11.5c-0.6,1.3-0.2,3.4,1.5,3.7
			c22.9,3.5,45.9,7.1,68.8,10.6c1.9,0.3,3.5-1.1,3.1-3.1c-7.1-30-14.1-60.1-21.2-90.1c-1-4.3-2-8.5-3-12.8c-0.7-3.1-5.6-1.8-4.8,1.3
			c7.1,30,14.1,60.1,21.2,90.1c1,4.3,2,8.5,3,12.8c1-1,2.1-2.1,3.1-3.1c-22.9-3.5-45.9-7.1-68.8-10.6c0.5,1.2,1,2.4,1.5,3.7
			c13-26.9,26-53.8,39.1-80.7c1.9-3.8,3.7-7.7,5.6-11.5C697,266.6,692.8,264,691.3,266.9z"/>
	</g>
</g>
<g>
	<polygon class="st8" points="686.6,452.6 717.6,371 648.8,360.4 	"/>
	<g>
		<path class="st1" d="M689,453.3c9-23.8,18.1-47.6,27.1-71.4c1.3-3.4,2.6-6.8,3.9-10.2c0.4-1.2-0.5-2.9-1.7-3.1
			c-22.9-3.5-45.9-7.1-68.8-10.6c-1.6-0.3-3.9,1.1-3.1,3.1c11,26.9,22.1,53.9,33.1,80.8c1.6,3.8,3.1,7.6,4.7,11.4
			c1.2,2.9,6,1.7,4.8-1.3c-11-26.9-22.1-53.9-33.1-80.8c-1.6-3.8-3.1-7.6-4.7-11.4c-1,1-2.1,2.1-3.1,3.1
			c22.9,3.5,45.9,7.1,68.8,10.6c-0.6-1-1.2-2.1-1.7-3.1c-9,23.8-18.1,47.6-27.1,71.4c-1.3,3.4-2.6,6.8-3.9,10.2
			C683.1,455,688,456.3,689,453.3z"/>
	</g>
</g>
<g>
	<polygon class="st9" points="693.5,268.2 763,363.9 717.6,371 	"/>
	<g>
		<path class="st1" d="M691.3,269.5c20.3,28,40.7,56,61,84c2.9,3.9,5.7,7.8,8.6,11.8c0.5-1.2,1-2.4,1.5-3.7
			c-15.1,2.4-30.2,4.7-45.4,7.1c1,0.6,2.1,1.2,3.1,1.7c-7.1-30-14.1-60.1-21.2-90.1c-1-4.3-2-8.5-3-12.8c-0.7-3.1-5.6-1.8-4.8,1.3
			c7.1,30,14.1,60.1,21.2,90.1c1,4.3,2,8.5,3,12.8c0.3,1.4,1.8,1.9,3.1,1.7c15.1-2.4,30.2-4.7,45.4-7.1c1.5-0.2,2.4-2.5,1.5-3.7
			c-20.3-28-40.7-56-61-84c-2.9-3.9-5.7-7.8-8.6-11.8C693.8,264.4,689.5,266.9,691.3,269.5z"/>
	</g>
</g>
<g>
	<polygon class="st10" points="686.6,452.6 717.6,371 763,363.9 	"/>
	<g>
		<path class="st1" d="M689,453.3c9-23.8,18.1-47.6,27.1-71.4c1.3-3.4,2.6-6.8,3.9-10.2c-0.6,0.6-1.2,1.2-1.7,1.7
			c15.1-2.4,30.2-4.7,45.4-7.1c-0.8-1.4-1.6-2.8-2.4-4.2c-22.3,25.9-44.5,51.7-66.8,77.6c-3.2,3.7-6.4,7.4-9.6,11.1
			c-2.1,2.4,1.4,6,3.5,3.5c22.3-25.9,44.5-51.7,66.8-77.6c3.2-3.7,6.4-7.4,9.6-11.1c1.7-2,0-4.6-2.4-4.2
			c-15.1,2.4-30.2,4.7-45.4,7.1c-0.9,0.1-1.5,1-1.7,1.7c-9,23.8-18.1,47.6-27.1,71.4c-1.3,3.4-2.6,6.8-3.9,10.2
			C683.1,455,688,456.3,689,453.3z"/>
	</g>
</g>
<g>
	<g>
		<path class="st1" d="M320.2,66.3c-2.1,20.1-4.1,40.2-6.2,60.4c1.3-0.7,2.5-1.4,3.8-2.2c-16.4-11.8-32.8-23.7-49.2-35.5
			c0,1.4,0,2.9,0,4.3c18.5-8.3,36.9-16.6,55.4-24.9c2.9-1.3,0.4-5.6-2.5-4.3C303,72.4,284.6,80.7,266.1,89c-1.9,0.8-1.3,3.3,0,4.3
			c16.4,11.8,32.8,23.7,49.2,35.5c1.7,1.2,3.6-0.5,3.8-2.2c2.1-20.1,4.1-40.2,6.2-60.4C325.5,63.1,320.5,63.1,320.2,66.3z"/>
	</g>
</g>
<circle class="st11" cx="568.8" cy="353.2" r="32"/>
<circle class="st12" cx="371.3" cy="230.2" r="38"/>
<circle class="st13" cx="118.3" cy="178.4" r="13"/>
<circle class="st0" cx="206.2" cy="563.6" r="41"/>
<circle class="st8" cx="278.2" cy="483.5" r="17.5"/>
<circle class="st5" cx="727.6" cy="133.3" r="48.5"/>
<circle class="st14" cx="127.8" cy="334.1" r="53.2"/>
<path class="st15" d="M467.9,432.1c18.8,0,34.1,15.3,34.1,34.1c0,11.8-6,22.1-15,28.3c-1.8,1.2-3.8,2.2-5.8,3.1
	c-13.7,6.1-28.2-0.5-38.1-11.1c-7.9-9.2-11.2-22.4-6.5-33.6c0.9-2,1.9-4,3.1-5.8C445.8,438,456.1,432.1,467.9,432.1z"/>
<g>
	
		<rect x="598.6" y="489.3" transform="matrix(0.1014 -0.9948 0.9948 0.1014 47.7849 1102.3217)" class="st12" width="70.9" height="70.9"/>
</g>
<circle class="st16" cx="607.2" cy="68.8" r="25"/>
<g>
	<path class="st11" d="M101,575l-45.7,10.8c-6.4,1.5-12.9-2.5-14.4-8.9l-10.8-45.7c-1.5-6.4,2.5-12.9,8.9-14.4L84.7,506
		c6.4-1.5,12.9,2.5,14.4,8.9l10.8,45.7C111.5,567,107.4,573.5,101,575z"/>
</g>
<g>
	<g>
		<path class="st1" d="M655.7,553.2c-23.5-2.4-47-4.8-70.5-7.2c0.8,0.8,1.7,1.7,2.5,2.5c2.4-23.5,4.8-47,7.2-70.5
			c-0.8,0.8-1.7,1.7-2.5,2.5c23.5,2.4,47,4.8,70.5,7.2c-0.8-0.8-1.7-1.7-2.5-2.5c-2.4,23.5-4.8,47-7.2,70.5c-0.3,3.2,4.7,3.2,5,0
			c2.4-23.5,4.8-47,7.2-70.5c0.1-1.4-1.3-2.4-2.5-2.5c-23.5-2.4-47-4.8-70.5-7.2c-1.4-0.1-2.4,1.3-2.5,2.5
			c-2.4,23.5-4.8,47-7.2,70.5c-0.1,1.4,1.3,2.4,2.5,2.5c23.5,2.4,47,4.8,70.5,7.2C658.9,558.5,658.9,553.5,655.7,553.2z"/>
	</g>
</g>
<g>
	<g>
		<path class="st1" d="M104.1,562.1c-14.6,3.4-29.2,6.9-43.7,10.3c-4.5,1-9.2,0.8-12-3.5c-1.4-2.2-1.8-5-2.4-7.5
			c-2.1-9-4.2-18-6.4-27c-1.4-5.8-5.7-15.9-2.1-21.5c3.6-5.7,14.8-6.3,20.8-7.7c9-2.1,17.9-4.2,26.9-6.3c2.6-0.6,5.4-1.6,8.1-1
			c4.9,1.1,6.8,5.1,7.8,9.4c2.3,9.6,4.5,19.1,6.8,28.7C109.7,544.3,116,558.6,104.1,562.1c-3.1,0.9-1.8,5.7,1.3,4.8
			c6.9-2,11.7-8.1,11-15.5c-0.2-2.7-1.1-5.4-1.7-8c-2.4-10.3-4.9-20.7-7.3-31c-2-8.6-3.7-18.5-14.5-19.8c-3.2-0.4-6.3,0.6-9.4,1.3
			c-4.7,1.1-9.5,2.2-14.2,3.3c-8.9,2.1-17.9,3.9-26.7,6.3c-10,2.7-12.7,11.4-10.5,20.6c2.4,10.1,4.7,20.1,7.1,30.2
			c1.8,7.9,2.5,18.1,10.6,22.2c4.2,2.1,8.4,1.4,12.8,0.4c5.2-1.2,10.4-2.4,15.6-3.7c9.1-2.1,18.1-4.3,27.2-6.4
			C108.5,566.2,107.2,561.4,104.1,562.1z"/>
	</g>
</g>
<g>
	<g>
		<path class="st1" d="M341.3,524c10.8-11.4,26.9-16,42-11.3c15.4,4.8,27,18.9,25.3,35.5c-1.6,16.3-16.8,30.3-33.5,25.4
			c-8.4-2.5-15.5-9.3-16.2-18.3c-0.7-8.3,4.3-17.3,12.7-19.3c10.1-2.3,22,7.7,15.7,18c-3.1,5.1-11.5,6.8-14.9,0.9
			c-1.4-2.3-1.2-5.7,0.7-7.6c3.4-3.6,10,0,6.6,4.7c-1.9,2.6,2.4,5.1,4.3,2.5c6.8-9.3-7-18.5-14.4-10.7c-8.2,8.6,0.9,21,11.4,19.8
			c11.5-1.2,16.2-15.4,10.4-24.5c-6.2-9.6-20.3-11.1-28.9-4.1c-8.9,7.3-11,20.6-5.5,30.5c5.6,10,17.8,15.2,29,13.7
			c25.3-3.4,35.1-35.2,21.5-55c-16.1-23.5-50.8-23.7-69.7-3.8C335.4,522.8,338.9,526.3,341.3,524L341.3,524z"/>
	</g>
</g>
<g>
	<g>
		<path class="st17" d="M214.2,182.2c12.1,22.3,24.2,44.7,36.2,67c1.5,2.8,5.8,0.3,4.3-2.5c-12.1-22.3-24.2-44.7-36.2-67
			C217,176.8,212.7,179.3,214.2,182.2L214.2,182.2z"/>
	</g>
</g>
<g>
	<polygon class="st18" points="392.5,792.4 284.9,827 368.7,902.9 	"/>
</g>
<g>
	<g>
		<path class="st17" d="M274.4,184.2c-22.3,12.1-44.7,24.2-67,36.2c-2.8,1.5-0.3,5.8,2.5,4.3c22.3-12.1,44.7-24.2,67-36.2
			C279.8,187,277.3,182.7,274.4,184.2L274.4,184.2z"/>
	</g>
</g>
<g>
	<g>
		<path class="st1" d="M381.1,800.7c-31.4,10.1-62.8,20.2-94.2,30.3c-4.5,1.4-8.9,2.9-13.4,4.3c-1.7,0.5-2.6,2.9-1.1,4.2
			c24.4,22.1,48.9,44.3,73.3,66.4c3.5,3.1,7,6.3,10.4,9.4c1.3,1.2,3.8,0.8,4.2-1.1c6.9-32.2,13.9-64.5,20.8-96.7c1-4.6,2-9.2,3-13.8
			c0.7-3.1-4.1-4.5-4.8-1.3c-6.9,32.2-13.9,64.5-20.8,96.7c-1,4.6-2,9.2-3,13.8c1.4-0.4,2.8-0.7,4.2-1.1
			c-24.4-22.1-48.9-44.3-73.3-66.4c-3.5-3.1-7-6.3-10.4-9.4c-0.4,1.4-0.7,2.8-1.1,4.2c31.4-10.1,62.8-20.2,94.2-30.3
			c4.5-1.4,8.9-2.9,13.4-4.3C385.5,804.6,384.2,799.7,381.1,800.7z"/>
	</g>
</g>
<g>
	<g>
		<path class="st1" d="M278.1,716.3c-4,12.6-17.3,19.6-30,15.4c-6.4-2.1-11.6-6.8-14.2-13c-2.8-6.6-1.2-12.3-0.2-19
			c3.6-22.8-21.2-40-41.5-29.6c-4.7,2.4-8.7,6.2-11.4,10.8c-3.2,5.5-3.9,11.6-8.6,16.2c-10.1,10.1-27.3,8.5-35.6-3.1
			c-3.9-5.4-5.3-12.1-3.9-18.6c1.2-5.5,2-10.5,0.6-16.2c-2.5-10.1-10.7-17.9-20.7-20.5c-11.9-3.1-24.8,2-31.2,12.5
			c-3.8,6.3-4.5,13.2-10.4,18.2c-6.1,5-14.1,6.4-21.6,4.5c-3.1-0.8-4.4,4-1.3,4.8c11.2,2.9,23.2-0.6,30.4-9.8c4-5.2,4.7-11.9,8.7-17
			c4.1-5.4,10.6-8.8,17.4-9c13.5-0.6,25.3,10.7,24.7,24.4c-0.3,6.1-2.6,11.4-1.6,17.7c1,5.7,3.7,11.1,7.7,15.2
			c8.1,8.4,20.8,11.1,31.6,6.5c5-2.1,9.3-5.6,12.3-10.1c3.8-5.6,4.4-12.4,9.2-17.5c9.3-9.9,25.9-9.4,34.9,0.7
			c4.6,5.2,6.8,12.4,5.6,19.2c-1,6.1-2.5,11.3-0.9,17.5c3,11.8,13.5,20.2,25.5,21.3c13.5,1.2,25.5-7.6,29.5-20.3
			C283.9,714.5,279.1,713.2,278.1,716.3L278.1,716.3z"/>
	</g>
</g>
<g>
	<polygon class="st19" points="681.6,769.3 714.4,733.6 688.2,690.1 638.6,701.3 635.9,749.5 	"/>
	<g>
		<path class="st1" d="M683.4,771.1c10.9-11.9,21.8-23.9,32.8-35.8c0.7-0.8,1-2.1,0.4-3c-8.7-14.5-17.5-29-26.2-43.4
			c-0.6-1-1.7-1.4-2.8-1.1c-16.5,3.7-33.1,7.5-49.6,11.2c-1.1,0.3-1.8,1.3-1.8,2.4c-0.9,16-1.8,32.1-2.7,48.1c0,0.8,0.5,1.8,1.2,2.2
			c15.3,6.6,30.5,13.2,45.8,19.9c2.9,1.3,5.5-3,2.5-4.3c-15.3-6.6-30.5-13.2-45.8-19.9c0.4,0.7,0.8,1.4,1.2,2.2
			c0.9-16,1.8-32.1,2.7-48.1c-0.6,0.8-1.2,1.6-1.8,2.4c16.5-3.7,33.1-7.5,49.6-11.2c-0.9-0.4-1.9-0.8-2.8-1.1
			c8.7,14.5,17.5,29,26.2,43.4c0.1-1,0.3-2,0.4-3c-10.9,11.9-21.8,23.9-32.8,35.8C677.7,769.9,681.2,773.5,683.4,771.1z"/>
	</g>
</g>
<g>
	<polygon class="st20" points="735.8,730 714.4,733.6 681.6,769.3 688.4,780.2 718.7,756.7 	"/>
	<g>
		<path class="st1" d="M735.1,727.6c-6.5,1.1-13.1,2-19.5,3.3c-3.9,0.7-5.9,4.1-8.5,7c-9.1,9.9-18.2,19.8-27.3,29.8
			c-0.7,0.8-1,2.1-0.4,3c2.3,3.6,4.5,7.2,6.8,10.9c0.9,1.5,2.6,1.5,3.9,0.5c4.5-3.5,9.1-7,13.6-10.5c5.3-4.1,11.3-7.9,16.2-12.6
			c3.3-3.1,5.4-8,7.9-11.8c3.4-5.3,6.7-10.6,10.1-15.8c1.7-2.7-2.6-5.2-4.3-2.5c-3.2,5-6.4,10-9.6,15c-2,3.1-3.9,6.1-5.9,9.2
			c-0.5,0.7-0.9,1.7-1.5,2.3c0.3-0.4,0.2-0.3-0.5,0.2c-9.7,7.8-19.7,15.3-29.5,22.9c1.3,0.2,2.6,0.3,3.9,0.5
			c-2.3-3.6-4.5-7.2-6.8-10.9c-0.1,1-0.3,2-0.4,3c8.8-9.6,17.6-19.3,26.5-28.9c1.8-1.9,3.7-3.8,5.3-5.8c0.3-0.4,0.6-0.7,1-1
			c-1.5,1.3-0.4,0.5,1.1,0.3c6.4-1.1,12.8-2.1,19.2-3.2C739.6,731.9,738.3,727,735.1,727.6z"/>
	</g>
</g>
<g>
	<polygon class="st21" points="714.4,733.6 735.8,730 726.5,691.6 699.7,666.5 688.2,690.1 	"/>
	<g>
		<path class="st1" d="M715.1,736c7.1-1.2,14.3-2.4,21.4-3.6c1.4-0.2,2-1.9,1.7-3.1c-1.5-6.4-3.1-12.8-4.6-19.2c-1-4.2-2-8.3-3-12.5
			c-0.5-2.1-0.7-4.8-1.6-6.7c-0.8-1.7-2.5-2.8-3.8-4.1c-2.9-2.7-5.9-5.5-8.8-8.2c-5-4.6-9.9-9.3-14.9-13.9c-1.1-1-3.2-1-3.9,0.5
			c-3.2,6.7-6.5,13.3-9.7,20c-1,2-2.5,4-1.8,6.2c0.6,1.7,2.1,3.5,3.1,5.1c7.7,12.8,15.4,25.5,23.1,38.3c1.7,2.8,6,0.2,4.3-2.5
			c-8.7-14.5-17.5-29-26.2-43.4c0,0.8,0,1.7,0,2.5c3.8-7.9,7.7-15.8,11.5-23.7c-1.3,0.2-2.6,0.3-3.9,0.5c4.7,4.4,9.4,8.8,14.1,13.2
			c3,2.8,6,5.6,9,8.5c0.9,0.8,1.8,1.9,2.8,2.6c1.2,0.8,0.6,0.9,0.3-0.1c3.7,12.5,6.2,25.5,9.2,38.2c0.6-1,1.2-2.1,1.7-3.1
			c-7.1,1.2-14.3,2.4-21.4,3.6C710.6,731.7,711.9,736.5,715.1,736z"/>
	</g>
</g>
<g>
	<polygon class="st22" points="638.6,701.3 630.2,682.2 664.2,664 699.7,666.5 688.2,690.1 	"/>
	<g>
		<path class="st1" d="M640.8,700.1c-2.8-6.4-5.6-12.7-8.4-19.1c-0.3,1.1-0.6,2.3-0.9,3.4c11.2-6,22.3-12.8,33.9-18.1
			c-0.7,0.3-1.4-0.1-0.2,0.3c1,0.4,2.5,0.2,3.6,0.3c4.1,0.3,8.2,0.6,12.3,0.9c6.2,0.4,12.5,0.9,18.7,1.3c-0.7-1.3-1.4-2.5-2.2-3.8
			c-3.1,6.4-6.2,12.8-9.4,19.3c-0.4,0.8-1.9,2.8-1.8,3.7c0.1,1.2,1.7-0.1,0.6-0.4c-1.7-0.4-5.3,1.2-7,1.6c-14,3.2-28,6.3-42,9.5
			c-3.1,0.7-1.8,5.5,1.3,4.8c14.5-3.3,28.9-6.5,43.4-9.8c1.8-0.4,4.3-0.6,6.1-1.4c2-0.9,2.5-3,3.4-4.9c3.2-6.7,6.5-13.3,9.7-20
			c0.9-1.8-0.2-3.6-2.2-3.8c-6.6-0.5-13.1-0.9-19.7-1.4c-4-0.3-8-0.6-11.9-0.8c-1.8-0.1-3.4-0.4-5.1,0.1c-1.9,0.6-3.9,2.1-5.6,3
			c-3.8,2-7.6,4.1-11.4,6.1c-5.7,3-11.4,6.1-17,9.1c-1.3,0.7-1.4,2.2-0.9,3.4c2.8,6.4,5.6,12.7,8.4,19.1
			C637.7,705.5,642,703,640.8,700.1z"/>
	</g>
</g>
<g>
	<polygon class="st23" points="624.7,753.1 635.9,749.5 681.6,769.3 688.4,780.2 655,768.9 	"/>
	<g>
		<path class="st1" d="M625.4,755.5c3.2-1,6.7-1.7,9.8-3.2c2.2-1,0.4,0.7-0.5-0.7c0.1,0.1,0.3,0.1,0.4,0.2c0.4,0.4,1.8,0.8,2.3,1
			c7,3.1,14.1,6.1,21.1,9.2c6.6,2.9,13.3,6.4,20.2,8.7c0.6,0.2,1.2,0.5,1.7,0.7c0.5,0.3-1.2-1.3-0.6-0.6c0.5,0.6,0.9,1.4,1.3,2
			c1.8,2.8,3.6,5.7,5.3,8.5c0.9-1.2,1.9-2.4,2.8-3.7c-11.1-3.7-22.6-6.9-33.4-11.3c1.3,0.5-0.3-0.2-0.6-0.3
			c-1.2-0.6-2.4-1.3-3.6-1.9c-3.5-1.8-7-3.6-10.4-5.4c-5.1-2.6-10.1-5.3-15.2-7.9c-2.9-1.5-5.4,2.8-2.5,4.3
			c10.2,5.3,20.3,11.6,30.9,16c10.8,4.5,22.3,7.6,33.4,11.3c2.1,0.7,3.9-1.9,2.8-3.7c-2.5-4-4.8-10.3-9.1-12.4
			c-6.9-3.3-14-6.1-21-9.1c-7.2-3.1-14.4-6.2-21.5-9.3c-4.9-2.1-10,1-14.9,2.6C621,751.7,622.3,756.5,625.4,755.5z"/>
	</g>
</g>
<g>
	<polygon class="st24" points="630.2,682.2 622.5,714.3 624.7,753.1 635.9,749.5 638.6,701.3 	"/>
	<g>
		<path class="st1" d="M627.8,681.5c-1.5,6.3-3,12.6-4.5,18.9c-1.1,4.6-3,9.6-3.2,14.4c-0.3,6.7,0.8,13.7,1.2,20.4
			c0.3,6,0.7,11.9,1,17.9c0.1,1.5,1.5,2.9,3.2,2.4c3.7-1.2,7.4-2.4,11.2-3.6c1.1-0.4,1.8-1.3,1.8-2.4c0.8-13.2,1.5-26.4,2.3-39.7
			c0.2-3.7,1.1-7.5-0.4-11c-2.6-6-5.2-11.9-7.9-17.9c-1.3-2.9-5.6-0.4-4.3,2.5c2.5,5.8,5,11.6,7.6,17.4c0.7,1.4,0.3,2.2,0.4,0.6
			c0,0.5,0,1-0.1,1.5c-0.4,2.6-0.3,5.4-0.5,8.1c-0.7,12.8-1.5,25.7-2.2,38.5c0.6-0.8,1.2-1.6,1.8-2.4c-3.7,1.2-7.4,2.4-11.2,3.6
			c1.1,0.8,2.1,1.6,3.2,2.4c-0.7-12.6-2-25.3-2.2-38c0-1.4-0.1,0.2-0.1-0.5c0.1-0.8,0.4-1.6,0.6-2.4c0.9-3.8,1.8-7.6,2.7-11.4
			c1.4-6,2.9-12,4.3-18C633.3,679.7,628.5,678.4,627.8,681.5z"/>
	</g>
</g>
<g>
	<polygon class="st25" points="111.3,820 105.8,779 65.9,792.8 71.4,834.2 	"/>
	<g>
		<path class="st1" d="M113.8,820c-1.8-13.7-3.7-27.3-5.5-41c-0.2-1.5-1.5-3-3.2-2.4c-13.3,4.6-26.6,9.2-39.9,13.8
			c-0.9,0.3-2,1.3-1.8,2.4c1.8,13.8,3.6,27.6,5.5,41.4c0.2,1.5,1.5,3,3.2,2.4c13.3-4.7,26.6-9.5,39.9-14.2c3-1.1,1.7-5.9-1.3-4.8
			c-13.3,4.7-26.6,9.5-39.9,14.2c1.1,0.8,2.1,1.6,3.2,2.4c-1.8-13.8-3.6-27.6-5.5-41.4c-0.6,0.8-1.2,1.6-1.8,2.4
			c13.3-4.6,26.6-9.2,39.9-13.8c-1.1-0.8-2.1-1.6-3.2-2.4c1.8,13.7,3.7,27.3,5.5,41C109.2,823.1,114.2,823.2,113.8,820z"/>
	</g>
</g>
<g>
	<polygon class="st26" points="105.8,779 148.1,796.9 111.3,820 	"/>
	<g>
		<path class="st1" d="M104.5,781.2c14.1,6,28.2,11.9,42.3,17.9c0-1.4,0-2.9,0-4.3c-12.3,7.7-24.5,15.4-36.8,23.1
			c1.3,0.7,2.5,1.4,3.8,2.2c-1.8-13.7-3.7-27.3-5.5-41c-0.4-3.1-5.4-3.2-5,0c1.8,13.7,3.7,27.3,5.5,41c0.2,1.8,2,3.3,3.8,2.2
			c12.3-7.7,24.5-15.4,36.8-23.1c1.4-0.9,1.8-3.5,0-4.3c-14.1-6-28.2-11.9-42.3-17.9C104.1,775.6,101.6,779.9,104.5,781.2z"/>
	</g>
</g>
<g>
	<polygon class="st27" points="118.3,760.3 105.8,779 148.1,796.9 160.5,778.4 	"/>
	<g>
		<path class="st1" d="M116.1,759c-4.2,6.2-8.3,12.5-12.5,18.7c-0.7,1-0.3,2.9,0.9,3.4c14.1,6,28.2,11.9,42.3,17.9
			c1.3,0.6,2.6,0.3,3.4-0.9c4.1-6.2,8.3-12.3,12.4-18.5c0.7-1,0.3-2.9-0.9-3.4c-14.1-6-28.1-12.1-42.2-18.1c-2.9-1.3-5.5,3-2.5,4.3
			c14.1,6,28.1,12.1,42.2,18.1c-0.3-1.1-0.6-2.3-0.9-3.4c-4.1,6.2-8.3,12.3-12.4,18.5c1.1-0.3,2.3-0.6,3.4-0.9
			c-14.1-6-28.2-11.9-42.3-17.9c0.3,1.1,0.6,2.3,0.9,3.4c4.2-6.2,8.3-12.5,12.5-18.7C122.2,758.8,117.9,756.3,116.1,759z"/>
	</g>
</g>
<g>
	<polygon class="st28" points="78.9,774.3 65.9,792.8 105.8,779 118.3,760.3 	"/>
	<g>
		<path class="st1" d="M76.7,773c-4.3,6.2-8.7,12.4-13,18.6c-1.2,1.8,0.8,4.4,2.8,3.7c11.8-4.1,23.5-8.2,35.3-12.2
			c4.1-1.4,5.6-2,8-5.7c3.5-5.3,7-10.5,10.5-15.8c1.2-1.8-0.8-4.4-2.8-3.7c-13.1,4.7-26.3,9.3-39.4,14c-3,1.1-1.7,5.9,1.3,4.8
			c13.1-4.7,26.3-9.3,39.4-14c-0.9-1.2-1.9-2.4-2.8-3.7c-3.3,4.9-6.6,9.9-9.9,14.8c-0.6,0.9-1.8,2.1-2.1,3.2
			c-0.6,1.7,0.3-0.6,0.8-0.3c-0.8-0.4-4.9,1.7-5.6,2c-11.3,3.9-22.7,7.9-34,11.8c0.9,1.2,1.9,2.4,2.8,3.7c4.3-6.2,8.7-12.4,13-18.6
			C82.9,772.9,78.6,770.4,76.7,773z"/>
	</g>
</g>
<g>
	<polygon class="st29" points="52.5,831.7 66.2,793.2 71.6,834.5 	"/>
	<g>
		<path class="st1" d="M54.9,832.4c4.6-12.8,9.1-25.7,13.7-38.5c-1.6-0.2-3.3-0.4-4.9-0.7c1.8,13.8,3.6,27.6,5.5,41.4
			c1.1-0.8,2.1-1.6,3.2-2.4c-6.4-0.9-12.8-1.9-19.1-2.8c-3.1-0.5-4.5,4.4-1.3,4.8c6.4,0.9,12.8,1.9,19.1,2.8
			c1.4,0.2,3.4-0.6,3.2-2.4c-1.8-13.8-3.6-27.6-5.5-41.4c-0.4-2.7-3.9-3.5-4.9-0.7c-4.6,12.8-9.1,25.7-13.7,38.5
			C49,834.1,53.8,835.4,54.9,832.4z"/>
	</g>
</g>
<g>
	<polygon class="st30" points="91.6,874.6 71.4,834.2 52.2,831.4 72.6,872 	"/>
	<g>
		<path class="st1" d="M93.8,873.4c-5.6-11.3-11.3-22.5-16.9-33.8c-1.5-3.1-2.4-7.1-6-8c-5.8-1.4-12-1.8-18-2.7
			c-2.2-0.3-3.9,1.6-2.8,3.7c5.6,11.2,11.2,22.3,16.8,33.5c1.4,2.8,2.6,7.6,5.9,8.5c5.8,1.5,12.3,1.7,18.2,2.5
			c3.1,0.4,4.5-4.4,1.3-4.8c-5.7-0.8-11.8-2.4-17.5-2.4c-2.7,0,0.3-0.7-0.1,0.8c0.1-0.3-0.6-1.1-0.7-1.4c-0.8-2.4-2.4-4.8-3.6-7.1
			c-5.3-10.7-10.7-21.4-16-32c-0.9,1.2-1.9,2.4-2.8,3.7c5.7,0.8,11.4,2.1,17.2,2.5c0.3,0,1.2,0.3,1.5,0.2c1.1-0.5-0.8,0-0.9-1
			c0,0.4,0.5,0.8,0.6,1.2c0.7,2.3,2.3,4.7,3.4,6.9c5.4,10.8,10.8,21.6,16.2,32.4C90.9,878.8,95.2,876.2,93.8,873.4z"/>
	</g>
</g>
<g>
	<polygon class="st31" points="111.3,820 71.4,834.2 91.6,874.6 131.4,860.2 	"/>
	<g>
		<path class="st1" d="M110.6,817.6c-13.3,4.7-26.6,9.5-39.9,14.2c-1.6,0.6-2.3,2.2-1.5,3.7c6.7,13.5,13.5,26.9,20.2,40.4
			c0.5,0.9,1.8,1.5,2.8,1.1c13.3-4.8,26.5-9.6,39.8-14.4c1.6-0.6,2.3-2.1,1.5-3.7c-6.7-13.4-13.4-26.8-20.1-40.2
			c-1.4-2.9-5.8-0.3-4.3,2.5c6.7,13.4,13.4,26.8,20.1,40.2c0.5-1.2,1-2.4,1.5-3.7c-13.3,4.8-26.5,9.6-39.8,14.4
			c0.9,0.4,1.9,0.8,2.8,1.1c-6.7-13.5-13.5-26.9-20.2-40.4c-0.5,1.2-1,2.4-1.5,3.7c13.3-4.7,26.6-9.5,39.9-14.2
			C115,821.3,113.7,816.5,110.6,817.6z"/>
	</g>
</g>
<g>
	<polygon class="st32" points="131.4,860.2 168.1,837 148.1,796.9 111.3,820 	"/>
	<g>
		<path class="st1" d="M132.7,862.3c12.2-7.7,24.5-15.5,36.7-23.2c1.2-0.8,1.5-2.2,0.9-3.4c-6.7-13.4-13.4-26.7-20.1-40.1
			c-0.6-1.2-2.3-1.6-3.4-0.9c-12.3,7.7-24.5,15.4-36.8,23.1c-1.2,0.8-1.5,2.2-0.9,3.4c6.7,13.4,13.4,26.8,20.1,40.2
			c1.4,2.9,5.8,0.3,4.3-2.5c-6.7-13.4-13.4-26.8-20.1-40.2c-0.3,1.1-0.6,2.3-0.9,3.4c12.3-7.7,24.5-15.4,36.8-23.1
			c-1.1-0.3-2.3-0.6-3.4-0.9c6.7,13.4,13.4,26.7,20.1,40.1c0.3-1.1,0.6-2.3,0.9-3.4c-12.2,7.7-24.5,15.5-36.7,23.2
			C127.4,859.7,129.9,864.1,132.7,862.3z"/>
	</g>
</g>
<g>
	<polygon class="st33" points="168.1,837 181,819.4 160.5,778.4 148.1,796.9 	"/>
	<g>
		<path class="st1" d="M170.3,838.2c4.3-5.9,8.6-11.7,12.9-17.6c0.5-0.7,0.4-1.8,0-2.5c-6.8-13.7-13.7-27.3-20.5-41
			c-0.9-1.8-3.3-1.5-4.3,0c-4.1,6.2-8.3,12.3-12.4,18.5c-0.5,0.8-0.4,1.7,0,2.5c6.7,13.4,13.4,26.7,20.1,40.1
			c1.4,2.9,5.8,0.3,4.3-2.5c-6.7-13.4-13.4-26.7-20.1-40.1c0,0.8,0,1.7,0,2.5c4.1-6.2,8.3-12.3,12.4-18.5c-1.4,0-2.9,0-4.3,0
			c6.8,13.7,13.7,27.3,20.5,41c0-0.8,0-1.7,0-2.5c-4.3,5.9-8.6,11.7-12.9,17.6C164.1,838.3,168.4,840.8,170.3,838.2z"/>
	</g>
</g>
<g>
	<polygon class="st34" points="168.1,837 154.4,875.6 131.4,860.2 	"/>
	<g>
		<path class="st1" d="M165.7,836.3c-4.6,12.9-9.2,25.8-13.8,38.6c1.2-0.5,2.4-1,3.7-1.5c-7.7-5.1-15.3-10.3-23-15.4
			c0,1.4,0,2.9,0,4.3c12.2-7.7,24.5-15.5,36.7-23.2c2.7-1.7,0.2-6-2.5-4.3c-12.2,7.7-24.5,15.5-36.7,23.2c-1.6,1-1.6,3.3,0,4.3
			c7.7,5.1,15.3,10.3,23,15.4c1.4,1,3.2-0.1,3.7-1.5c4.6-12.9,9.2-25.8,13.8-38.6C171.6,834.6,166.8,833.3,165.7,836.3z"/>
	</g>
</g>
<g>
	<polygon class="st35" points="154.4,875.6 167.1,857.3 181,819.4 168.1,837 	"/>
	<g>
		<path class="st1" d="M156.6,876.9c5.2-7.6,11.4-14.7,14.6-23.4c4.1-11.2,8.2-22.3,12.3-33.5c1-2.9-3-4-4.6-1.9
			c-5.5,7.5-11.8,14.4-14.9,23.2c-4,11.2-8,22.4-12,33.6c-1.1,3,3.7,4.3,4.8,1.3c3.9-11,7.8-22,11.7-33c0.6-1.7,1.1-3.7,1.9-5.3
			c0.4-0.8-0.4,0.7,0.2-0.2c0.6-1,1.4-1.9,2-2.8c3.5-4.8,7-9.6,10.5-14.4c-1.5-0.6-3-1.3-4.6-1.9c-4,10.9-8,21.9-12.1,32.8
			c-0.6,1.6-1,3.4-1.8,4.9c0.1-0.1,0.2-0.5-0.3,0.3c-0.7,1.1-1.4,2.1-2.2,3.1c-3.3,4.8-6.7,9.7-10,14.5
			C150.4,877,154.7,879.5,156.6,876.9z"/>
	</g>
</g>
<g>
	<g>
		<path class="st1" d="M85.7,96.1c3.8,18,18.4,32.3,36.8,35c18.1,2.7,36.6-6.4,45.3-22.6c8.8-16.2,6.4-36.6-5.7-50.4
			c-12.4-14-32.9-18.6-50.1-11.4C92.5,54.9,82.1,75.6,85.7,96.1c0.6,3.2,5.4,1.8,4.8-1.3C87.6,78.6,95,62,109.3,53.6
			c14.1-8.2,32.5-6.7,44.9,3.9c12.3,10.4,17.1,27.8,11.7,43.1c-5.6,15.6-20.8,26.2-37.4,26.1c-18.7-0.1-34.2-13.8-38.1-31.9
			C89.9,91.7,85,93,85.7,96.1z"/>
	</g>
</g>
<g>
	<polygon class="st36" points="91.6,874.6 114.7,890.2 154.4,875.6 131.4,860.2 	"/>
	<g>
		<path class="st1" d="M90.3,876.8c5.4,3.7,10.9,7.4,16.3,11c4,2.7,6.3,5.6,11,3.9c12.5-4.6,24.9-9.1,37.4-13.7
			c2.1-0.8,2.4-3.3,0.6-4.6c-5.4-3.6-10.9-7.3-16.3-10.9c-4-2.7-6.3-5.6-11-3.9c-12.5,4.5-25,9.1-37.4,13.6c-3,1.1-1.7,5.9,1.3,4.8
			c12.1-4.4,24.3-8.8,36.4-13.2c0.7-0.3,2.1-0.5,2.7-1c1.2-1-1,0.2-1-0.3c0,0.8,6.2,4.2,6.8,4.6c5.3,3.6,10.6,7.1,15.9,10.7
			c0.2-1.5,0.4-3,0.6-4.6c-12.1,4.4-24.2,8.9-36.3,13.3c-0.7,0.3-2.1,0.5-2.7,1c-1.2,1,1-0.2,1,0.3c0-0.8-6.3-4.2-6.9-4.6
			c-5.3-3.6-10.6-7.2-15.9-10.8C90.2,870.7,87.7,875,90.3,876.8z"/>
	</g>
</g>
<g>
	<polygon class="st37" points="72.6,872 114.7,890.2 91.6,874.6 	"/>
	<g>
		<path class="st1" d="M71.3,874.2c14,6.1,28.1,12.1,42.1,18.2c2.9,1.3,5.2-2.5,2.5-4.3c-7.2-4.9-14.4-10-21.8-14.7
			c-2.4-1.5-4.8-1.5-7.6-1.9c-4.4-0.6-8.9-1.2-13.3-1.8c-3.1-0.4-4.5,4.4-1.3,4.8c4.1,0.6,8.3,1.1,12.4,1.7c2,0.3,4.1,0.3,6,0.8
			c1,0.3-0.4-0.3,0.2,0c0.5,0.2,1,0.7,1.5,1c7.1,4.8,14.2,9.6,21.3,14.4c0.8-1.4,1.7-2.9,2.5-4.3c-14-6.1-28.1-12.1-42.1-18.2
			C70.9,868.6,68.4,872.9,71.3,874.2z"/>
	</g>
</g>
<circle class="st38" cx="361.4" cy="672" r="50.1"/>
<circle class="st39" cx="748.6" cy="563.6" r="27.8"/>
<g>
	<g>
		<path class="st1" d="M108.2,97.4c2.7,10.8,15.9,12.3,25.1,10.8c3.2-0.5,1.8-5.4-1.3-4.8c-6.5,1.1-16.9,0.5-18.9-7.3
			C112.2,93,107.4,94.3,108.2,97.4L108.2,97.4z"/>
	</g>
</g>
<g>
	<g>
		<path class="st1" d="M133.3,108.2c9.7-2.1,21.3-9.1,19.5-20.5c-0.5-3.2-5.3-1.8-4.8,1.3c1.3,8.3-9.7,13-16.1,14.4
			C128.8,104.1,130.1,108.9,133.3,108.2L133.3,108.2z"/>
	</g>
</g>
<ellipse transform="matrix(0.9815 -0.1916 0.1916 0.9815 -13.0521 21.9626)" class="st40" cx="107" cy="78.5" rx="6.7" ry="6.7"/>
<ellipse transform="matrix(0.9815 -0.1916 0.1916 0.9815 -10.8193 29.4661)" class="st40" cx="146.9" cy="70.7" rx="6.7" ry="6.7"/>
<g>
	<polygon class="st12" points="278.8,1027.8 256.2,1022.9 239.4,1038.7 237.1,1015.7 216.8,1004.6 238,995.3 242.3,972.6 
		257.7,989.8 280.6,986.9 269,1006.9 	"/>
	<g>
		<path class="st1" d="M279.5,1025.4c-4.1-0.9-8.2-1.8-12.2-2.7c-3-0.6-8.5-3.1-11.6-2.2c-3,0.8-6.3,5.5-8.4,7.5
			c-3.2,3-6.3,5.9-9.5,8.9c1.4,0.6,2.8,1.2,4.3,1.8c-0.4-4.2-0.8-8.3-1.3-12.5c-0.3-3.1,0.3-9-1.4-11.8c-1.6-2.6-7.2-4.3-9.7-5.7
			c-3.8-2.1-7.6-4.2-11.4-6.3c0,1.4,0,2.9,0,4.3c3.7-1.6,7.3-3.2,11-4.8c2.9-1.3,8.8-2.5,10.8-5.1c2-2.5,1.9-8.2,2.4-11.2
			c0.8-4.1,1.6-8.2,2.3-12.3c-1.4,0.4-2.8,0.7-4.2,1.1c2.7,3,5.3,6,8,9c2.1,2.4,5.1,7.5,8.2,8.8c2.9,1.2,8.4-0.7,11.4-1.1
			c4.1-0.5,8.3-1,12.4-1.6c-0.7-1.3-1.4-2.5-2.2-3.8c-2.1,3.6-4.2,7.2-6.3,10.8c-1.5,2.6-5.6,7.2-5.7,10.4
			c-0.1,3.1,3.4,7.7,4.6,10.4c1.8,3.9,3.7,7.9,5.5,11.8c1.4,2.9,5.7,0.4,4.3-2.5c-3.3-7-6.6-13.9-9.8-20.9c0,0.8,0,1.7,0,2.5
			c3.9-6.6,7.8-13.3,11.6-19.9c0.9-1.5-0.2-4-2.2-3.8c-3.7,0.5-7.3,0.9-11,1.4c-2.6,0.3-5.2,0.7-7.8,1c-0.6,0.1-5.3,0.5-3.3,0.9
			c1.4,0.2,0.6,0.4,0.2-0.4c-0.4-0.7-1.3-1.4-1.8-2c-1.7-1.9-3.4-3.9-5.2-5.8c-2.6-2.9-5.1-5.7-7.7-8.6c-1.2-1.3-3.8-0.7-4.2,1.1
			c-0.7,3.6-1.4,7.2-2.1,10.9c-0.5,2.6-1,5.1-1.5,7.7c-0.2,0.9-0.5,2-0.5,2.9c0,0.8-0.8,1.7,0.3,0.5c1.4-1.5-2.3,0.5-2.9,0.8
			c-2.4,1-4.7,2.1-7.1,3.1c-3.5,1.5-7,3.1-10.6,4.6c-1.7,0.8-1.5,3.5,0,4.3c6.7,3.7,13.5,7.4,20.2,11.1c-0.4-0.7-0.8-1.4-1.2-2.2
			c0.8,7.7,1.5,15.3,2.3,23c0.2,2.1,2.6,3.3,4.3,1.8c5.6-5.3,11.2-10.5,16.8-15.8c-0.8,0.2-1.6,0.4-2.4,0.6c7.5,1.6,15,3.3,22.6,4.9
			C281.3,1030.9,282.6,1026,279.5,1025.4z"/>
	</g>
</g>
<circle class="st41" cx="552.3" cy="640.4" r="26.1"/>
<circle class="st42" cx="547.1" cy="950.4" r="35"/>
<g>
	<g>
		<path class="st1" d="M504.5,770c-12.8,11.2-25.6,22.3-38.3,33.5c-2.4,2.1,1.1,5.6,3.5,3.5c12.8-11.2,25.6-22.3,38.3-33.5
			C510.5,771.4,506.9,767.9,504.5,770L504.5,770z"/>
	</g>
</g>
<g>
	<g>
		<path class="st1" d="M505.6,805.9c-11.2-12.8-22.3-25.6-33.5-38.3c-2.1-2.4-5.6,1.1-3.5,3.5c11.2,12.8,22.3,25.6,33.5,38.3
			C504.2,811.9,507.7,808.3,505.6,805.9L505.6,805.9z"/>
	</g>
</g>
<circle class="st43" cx="765.7" cy="875.6" r="48.5"/>
<g>
	<g>
		<path class="st1" d="M431.4,959.2c9.5,33.5-9.5,68.5-42.9,78.7c-3.1,0.9-1.8,5.8,1.3,4.8c35.9-11,56.6-48.7,46.4-84.8
			C435.3,954.7,430.5,956,431.4,959.2L431.4,959.2z"/>
	</g>
</g>
</svg>
