<svg xmlns="http://www.w3.org/2000/svg" xmlns:xlink="http://www.w3.org/1999/xlink" viewBox="0 0 126.92913 126.92913"><defs><style>.cls-1{fill:#32804c;stroke-miterlimit:10;stroke-width:5px;stroke:url(#Безымянный_градиент_27);}.cls-2{fill:#e8e9ea;}</style><linearGradient id="Безымянный_градиент_27" y1="63.46457" x2="126.92913" y2="63.46457" gradientUnits="userSpaceOnUse"><stop offset="0" stop-color="#51914e"/><stop offset="1" stop-color="#6eb153"/></linearGradient></defs><title>Ресурс 1</title><g id="Слой_2" data-name="Слой 2"><g id="icons"><rect class="cls-1" x="2.5" y="2.5" width="121.92913" height="121.92913"/><path class="cls-2" d="M65.87257,97.17152s19.22635-61.81637,0-76.17529H60.275S42.02216,30.001,61.49188,97.17152Z"/><path class="cls-2" d="M87.04589,54.94656c3.28665-28.48428-13.81133-32.97684-13.81133-32.97684,5.93218,4.837,7.67682,16.33631,6.94671,25.91907S75.72912,81.109,69.949,90.4788A61.48037,61.48037,0,0,0,87.04589,54.94656Z"/><path class="cls-2" d="M71.66976,95.71129s18.54-23.72872,22.008-39.97377-4.01563-25.554-4.01563-25.554,14.2822,15.33677,4.93286,35.37038C84.77666,86.59247,70.53878,95.92578,71.66976,95.71129Z"/><rect class="cls-2" x="56.80698" y="101.73474" width="13.14206" height="8.03126"/><path class="cls-2" d="M39.71013,55.18813C36.42348,26.70385,53.52146,22.21129,53.52146,22.21129c-5.93218,4.837-7.67682,16.33631-6.94671,25.91907s4.45215,33.22021,10.23222,42.59A61.48037,61.48037,0,0,1,39.71013,55.18813Z"/><path class="cls-2" d="M55.08626,95.95286s-18.54-23.72872-22.008-39.97377,4.01563-25.554,4.01563-25.554S22.81169,45.76185,32.161,65.79546C41.97936,86.834,56.21724,96.16735,55.08626,95.95286Z"/></g></g></svg>