<?xml version="1.0" encoding="UTF-8"?>
<svg width="18" height="18" xmlns="http://www.w3.org/2000/svg" xmlns:svg="http://www.w3.org/2000/svg">
 <g>
  <title>Layer 1</title>
  <g id="svg_5">
   <path d="m13.947368,0.552632l-10,0a3.5,3.5 0 0 0 -3.5,3.5l0,10a3.5,3.5 0 0 0 3.5,3.5l10,0a3.5,3.5 0 0 0 3.5,-3.5l0,-10a3.5,3.5 0 0 0 -3.5,-3.5zm0,16l-10,0a2.5,2.5 0 0 1 -2.5,-2.5l0,-6.5l15,0l0,6.5a2.5,2.5 0 0 1 -2.5,2.5zm2.5,-10l-15,0l0,-2.5a2.5,2.5 0 0 1 2.5,-2.5l10,0a2.5,2.5 0 0 1 2.5,2.5l0,2.5z" id="svg_1" fill="black"/>
   <path d="m4.947368,2.552632a1.5,1.5 0 1 0 1.5,1.5a1.5,1.5 0 0 0 -1.5,-1.5zm0,2a0.5,0.5 0 1 1 0.5,-0.5a0.5,0.5 0 0 1 -0.5,0.5z" id="svg_2"/>
   <path d="m13.947368,2.552632l-5,0a0.5,0.5 0 0 0 0,1l5,0a0.5,0.5 0 0 0 0,-1z" id="svg_3"/>
   <path d="m13.947368,4.552632l-5,0a0.5,0.5 0 0 0 0,1l5,0a0.5,0.5 0 0 0 0,-1z" id="svg_4"/>
  </g>
 </g>
</svg>