<svg xmlns="http://www.w3.org/2000/svg" xmlns:xlink="http://www.w3.org/1999/xlink" viewBox="0 0 753.53742 488.87944"><script xmlns=""/><defs><style>.cls-1{fill:#1d1d1d;}.cls-2{fill:#282727;}.cls-3{fill:#3f3f3f;}.cls-4{fill:#181717;}.cls-5{fill:#474242;}.cls-6{fill:#32804c;stroke:url(#Безымянный_градиент_27);}.cls-17,.cls-18,.cls-21,.cls-22,.cls-23,.cls-24,.cls-25,.cls-26,.cls-29,.cls-30,.cls-31,.cls-32,.cls-6,.cls-7,.cls-9{stroke-miterlimit:10;}.cls-29,.cls-30,.cls-31,.cls-32,.cls-6,.cls-7,.cls-9{stroke-width:5px;}.cls-14,.cls-7,.cls-9{fill:#303030;}.cls-7{stroke:url(#Безымянный_градиент_17);}.cls-8{fill:#c6be40;}.cls-9{stroke:url(#Безымянный_градиент_24);}.cls-10{fill:#55b6d5;}.cls-11{fill:#e8e9ea;}.cls-12{fill:#302c2c;}.cls-13,.cls-22{fill:#e1e1e0;}.cls-15{fill:#717172;}.cls-16{fill:#232323;}.cls-17,.cls-19{fill:#808181;}.cls-17,.cls-18,.cls-21,.cls-22,.cls-23{stroke:#333332;}.cls-18{fill:#5c5c5c;}.cls-20{fill:#333332;}.cls-21,.cls-30,.cls-31{fill:none;}.cls-23{fill:#bababa;}.cls-24{fill:#696968;}.cls-24,.cls-25,.cls-26,.cls-29{stroke:#5ff281;}.cls-24,.cls-25,.cls-26{stroke-width:3px;}.cls-25{fill:#878787;}.cls-26,.cls-27{fill:#b4b4b4;}.cls-28{fill:#606262;}.cls-29{fill:#8f8e8e;}.cls-30,.cls-31,.cls-32{stroke:#272525;}.cls-31,.cls-32{stroke-linecap:round;}.cls-32{fill:#5ff281;}</style><linearGradient id="Безымянный_градиент_27" x1="326.83333" y1="63.46457" x2="453.76247" y2="63.46457" gradientUnits="userSpaceOnUse"><stop offset="0" stop-color="#51914e"/><stop offset="1" stop-color="#6eb153"/></linearGradient><linearGradient id="Безымянный_градиент_17" x1="476.5823" y1="63.59169" x2="603.76569" y2="63.59169" gradientUnits="userSpaceOnUse"><stop offset="0" stop-color="#df9030"/><stop offset="1" stop-color="#c6be40"/></linearGradient><linearGradient id="Безымянный_градиент_24" x1="626.58553" y1="63.59169" x2="753.18619" y2="63.59169" gradientUnits="userSpaceOnUse"><stop offset="0" stop-color="#4674b6"/><stop offset="1" stop-color="#15a8e6"/></linearGradient></defs><title>td</title><g id="tablet"><rect class="cls-1" y="326.10572" width="239.53291" height="160.78291" rx="13.13642" ry="13.13642"/><rect class="cls-2" x="11.03172" y="336.2514" width="217.76189" height="140.49154"/><polygon class="cls-3" points="11.032 336.251 161.427 336.251 54.358 476.743 11.032 476.743 11.032 336.251"/><path class="cls-4" d="M301.78784,512.581s-.16343,3.40343-6.01982,3.31615c-7.00992-.10448-7.53435-3.31955-7.53435-3.31955l.03383-134.78871,13.55417.0034Z" transform="translate(-39.83333 -29.51939)"/><path class="cls-5" d="M288.27527,377.73493l4.89924-18.63576,2.63553.00066,6.0194,18.6385s-.00072,2.86365-6.55455,2.69C288.27626,380.243,288.27527,377.73493,288.27527,377.73493Z" transform="translate(-39.83333 -29.51939)"/><rect class="cls-4" x="253.71806" y="326.61513" width="1.7884" height="2.96498"/></g><g id="icons"><rect class="cls-6" x="329.33333" y="2.5" width="121.92913" height="121.92913"/><rect class="cls-7" x="479.0823" y="2.5" width="122.18339" height="122.18339"/><path class="cls-8" d="M595.12109,125.17432h-9.86035l-4.874-16.09229H559.07813l-4.68457,16.09229h-9.82324L564.8584,61.95166h10.126Zm-17.11426-24.64551-7.51855-25.21826a34.01536,34.01536,0,0,1-.71777-3.96777h-.15137a29.44688,29.44688,0,0,1-.75586,3.96777l-7.44238,25.21826Z" transform="translate(-39.83333 -29.51939)"/><path class="cls-8" d="M606.002,70.54932a4.8719,4.8719,0,0,1-3.68359-1.63135,5.82026,5.82026,0,0,1-1.53027-4.14453,5.97978,5.97978,0,0,1,1.53027-4.18848,4.81519,4.81519,0,0,1,3.68359-1.67529,4.95293,4.95293,0,0,1,3.77832,1.67529,5.93658,5.93658,0,0,1,1.54883,4.18848,5.83892,5.83892,0,0,1-1.54883,4.07813A4.92327,4.92327,0,0,1,606.002,70.54932Zm4.3457,54.625H601.582V80.02783h8.76563Z" transform="translate(-39.83333 -29.51939)"/><rect class="cls-9" x="629.08553" y="2.79137" width="121.60066" height="121.60066"/><path class="cls-10" d="M706.18262,102.20361V125.02h-8.91113V62.09912h16.35645q9.28711,0,14.40137,5.0459,5.11377,5.04639,5.11426,14.21631,0,9.17139-5.33984,15.00635-5.33936,5.83594-14.43848,5.83594Zm0-31.50439V93.69141h5.791q5.75244,0,8.76074-3.11572,3.00879-3.115,3.00879-8.77539,0-11.10059-11.05469-11.10107Z" transform="translate(-39.83333 -29.51939)"/><path class="cls-10" d="M738.89648,123.61572v-9.43359a15.8829,15.8829,0,0,0,10.791,4.34375q7.897,0,7.89648-5.44043a4.80385,4.80385,0,0,0-.67676-2.61084,6.94382,6.94382,0,0,0-1.82324-1.90869,13.59785,13.59785,0,0,0-2.708-1.49219q-1.56006-.65771-3.47754-1.4917a34.52011,34.52011,0,0,1-4.26758-2.32568,13.28958,13.28958,0,0,1-3.15918-2.78613,10.88858,10.88858,0,0,1-1.89844-3.53223,14.96591,14.96591,0,0,1-.63965-4.60693A12.02446,12.02446,0,0,1,740.25,86.605a12.59942,12.59942,0,0,1,3.53418-4.16846,15.82658,15.82658,0,0,1,5.03906-2.54492,19.96287,19.96287,0,0,1,5.82813-.85547,23.13544,23.13544,0,0,1,9.55078,1.88672v8.90723A14.51741,14.51741,0,0,0,754.877,86.583a10.52274,10.52274,0,0,0-2.98926.395,7.17066,7.17066,0,0,0-2.27539,1.09668,5.0662,5.0662,0,0,0-1.46582,1.68945,4.53658,4.53658,0,0,0-.52637,2.17188,4.83937,4.83937,0,0,0,2.08691,4.23438,12.67229,12.67229,0,0,0,2.48145,1.40381q1.44727.63647,3.32715,1.38232a45.90771,45.90771,0,0,1,4.45605,2.41309,15.34948,15.34948,0,0,1,3.36523,2.78662,11.12363,11.12363,0,0,1,2.14355,3.59766,14.04354,14.04354,0,0,1,.752,4.84863,12.52587,12.52587,0,0,1-1.35352,5.96729,12.39256,12.39256,0,0,1-3.61035,4.2124,15.63642,15.63642,0,0,1-5.207,2.479,23.38061,23.38061,0,0,1-6.22363.812A23.00489,23.00489,0,0,1,738.89648,123.61572Z" transform="translate(-39.83333 -29.51939)"/><path class="cls-11" d="M432.53924,126.69091s19.22635-61.81637,0-76.17529h-5.59755s-18.25286,9.00475,1.21686,76.17529Z" transform="translate(-39.83333 -29.51939)"/><path class="cls-11" d="M453.71256,84.466c3.28665-28.48428-13.81133-32.97684-13.81133-32.97684,5.93218,4.837,7.67682,16.33631,6.94671,25.91907s-4.45215,33.22021-10.23222,42.59A61.48037,61.48037,0,0,0,453.71256,84.466Z" transform="translate(-39.83333 -29.51939)"/><path class="cls-11" d="M438.33643,125.23068s18.54-23.72872,22.008-39.97377-4.01563-25.554-4.01563-25.554,14.2822,15.33677,4.93286,35.37038C451.44333,116.11186,437.20545,125.44517,438.33643,125.23068Z" transform="translate(-39.83333 -29.51939)"/><rect class="cls-11" x="383.64031" y="101.73474" width="13.14206" height="8.03126"/><path class="cls-11" d="M406.3768,84.70752c-3.28665-28.48428,13.81133-32.97684,13.81133-32.97684-5.93218,4.837-7.67682,16.33631-6.94671,25.91907s4.45215,33.22021,10.23222,42.59A61.48037,61.48037,0,0,1,406.3768,84.70752Z" transform="translate(-39.83333 -29.51939)"/><path class="cls-11" d="M421.75293,125.47225s-18.54-23.72872-22.008-39.97377,4.01563-25.554,4.01563-25.554-14.2822,15.33677-4.93286,35.37038C408.646,116.35342,422.8839,125.68674,421.75293,125.47225Z" transform="translate(-39.83333 -29.51939)"/></g><g id="laptop"><rect class="cls-12" y="2.09476" width="262" height="152" rx="10" ry="10"/><rect class="cls-13" x="13" y="12.31395" width="236.66667" height="131.33333"/><rect class="cls-1" y="154.09476" width="262" height="152" rx="10" ry="10"/><rect class="cls-14" x="90.83333" y="246.98061" width="81" height="53" rx="10.72214" ry="10.72214"/><rect class="cls-14" x="11.25" y="159.14728" width="240.16667" height="80.5"/><rect class="cls-15" x="191.77055" y="162.98061" width="14.16667" height="14.16667"/><rect class="cls-15" x="211.85388" y="162.98061" width="14.16667" height="14.16667"/><rect class="cls-15" x="231.93722" y="162.98061" width="14.16667" height="14.16667"/><rect class="cls-15" x="191.77055" y="182.73061" width="14.16667" height="14.16667"/><rect class="cls-15" x="211.85388" y="182.73061" width="14.16667" height="14.16667"/><rect class="cls-15" x="231.93722" y="182.73061" width="14.16667" height="14.16667"/><rect class="cls-15" x="191.77055" y="202.48061" width="14.16667" height="14.16667"/><rect class="cls-15" x="211.85388" y="202.48061" width="14.16667" height="14.16667"/><rect class="cls-15" x="231.93722" y="202.48061" width="14.16667" height="14.16667"/><rect class="cls-15" x="211.85388" y="222.23061" width="14.16667" height="14.16667"/><rect class="cls-15" x="231.93722" y="222.23061" width="14.16667" height="14.16667"/><rect class="cls-15" x="171.60388" y="202.48061" width="14.16667" height="14.16667"/><rect class="cls-15" x="171.60388" y="222.23061" width="14.16667" height="14.16667"/><rect class="cls-15" x="191.68722" y="222.23061" width="14.16667" height="14.16667"/><rect class="cls-15" x="151.68722" y="222.39728" width="14.16667" height="14.16667"/><rect class="cls-15" x="151.68722" y="182.73061" width="34.08333" height="14.16667"/><rect class="cls-15" x="160.60388" y="162.98061" width="25.16667" height="14.16667"/><rect class="cls-15" x="142.77055" y="202.48061" width="22.33333" height="14.16667"/><rect class="cls-15" x="45.02055" y="222.23061" width="81" height="14.16667"/><polygon class="cls-15" points="25.561 222.231 23.288 222.231 14.521 222.231 14.521 236.564 23.288 236.564 25.561 236.564 40.271 236.564 40.271 222.231 25.561 222.231"/><polygon class="cls-15" points="32.439 202.397 28.75 202.397 14.521 202.397 14.521 216.731 28.75 216.731 32.439 216.731 56.312 216.731 56.312 202.397 32.439 202.397"/><rect class="cls-15" x="122.10388" y="202.48061" width="14.16667" height="14.16667"/><rect class="cls-15" x="61.77055" y="202.48061" width="14.16667" height="14.16667"/><rect class="cls-15" x="101.43722" y="202.48061" width="14.16667" height="14.16667"/><rect class="cls-15" x="81.60388" y="202.48061" width="14.16667" height="14.16667"/><polygon class="cls-15" points="28.687 182.731 23.771 182.731 14.521 182.731 14.521 196.897 23.771 196.897 28.687 196.897 42.5 196.897 42.5 182.731 28.687 182.731"/><rect class="cls-15" x="108.60388" y="182.73061" width="14.16667" height="14.16667"/><rect class="cls-15" x="48.27055" y="182.73061" width="14.16667" height="14.16667"/><rect class="cls-15" x="87.93722" y="182.73061" width="14.16667" height="14.16667"/><rect class="cls-15" x="68.10388" y="182.73061" width="14.16667" height="14.16667"/><rect class="cls-15" x="129.18722" y="182.73061" width="14.16667" height="14.16667"/><rect class="cls-15" x="14.52055" y="162.98061" width="14.16667" height="14.16667"/><rect class="cls-15" x="34.10388" y="162.98061" width="14.16667" height="14.16667"/><rect class="cls-15" x="53.93722" y="162.98061" width="14.16667" height="14.16667"/><rect class="cls-15" x="73.77055" y="162.98061" width="14.16667" height="14.16667"/><rect class="cls-15" x="93.35388" y="162.98061" width="14.16667" height="14.16667"/><rect class="cls-15" x="112.93722" y="162.98061" width="14.16667" height="14.16667"/><rect class="cls-15" x="132.77055" y="162.98061" width="14.16667" height="14.16667"/><rect class="cls-15" x="131.77055" y="222.39728" width="14.16667" height="14.16667"/><path class="cls-16" d="M171.60388,318.75l-40.93722.02786A10.75366,10.75366,0,0,0,141.38881,329.5h59.55572a10.75366,10.75366,0,0,0,10.72214-10.72214Z" transform="translate(-39.83333 -29.51939)"/><rect class="cls-17" x="18.16667" y="15.87219" width="63.35388" height="100.04132"/><rect class="cls-18" x="18.16667" y="15.87219" width="63.35388" height="8.45325"/><rect class="cls-19" x="13" y="131.64728" width="236.66667" height="12"/><rect class="cls-17" x="181" y="15.39446" width="63.35388" height="107.16667"/><rect class="cls-18" x="181" y="15.39446" width="63.35388" height="9.05533"/><rect class="cls-18" x="181" y="62.01742" width="63.35388" height="9.05533"/><path class="cls-20" d="M151.70605,119.1665V77.15479h14.88281q22.38281,0,22.38281,20.47852,0,9.81519-6.1084,15.67383-6.1084,5.86011-16.27441,5.85938Zm9.46289-34.30664v26.63086h4.6875q6.15234,0,9.65332-3.69141,3.50024-3.69141,3.501-10.04883,0-6.00513-3.47168-9.44824-3.47168-3.44238-9.74121-3.44238Z" transform="translate(-39.83333 -29.51939)"/><rect class="cls-21" x="100.5" y="38.50385" width="57.33333" height="63.16667"/><rect class="cls-22" x="97.41506" y="98.58557" width="6.16988" height="6.16988"/><rect class="cls-22" x="154.74839" y="98.25224" width="6.16988" height="6.16988"/><rect class="cls-22" x="126.10248" y="98.58557" width="6.16988" height="6.16988"/><rect class="cls-22" x="97.41506" y="98.58557" width="6.16988" height="6.16988"/><rect class="cls-22" x="154.74839" y="98.25224" width="6.16988" height="6.16988"/><rect class="cls-22" x="126.10248" y="98.58557" width="6.16988" height="6.16988"/><rect class="cls-22" x="97.41506" y="98.58557" width="6.16988" height="6.16988"/><rect class="cls-22" x="154.74839" y="98.25224" width="6.16988" height="6.16988"/><rect class="cls-22" x="126.10248" y="98.58557" width="6.16988" height="6.16988"/><rect class="cls-22" x="97.41506" y="35.58557" width="6.16988" height="6.16988"/><rect class="cls-22" x="154.74839" y="35.25224" width="6.16988" height="6.16988"/><rect class="cls-22" x="126.10248" y="35.58557" width="6.16988" height="6.16988"/><rect class="cls-22" x="97.41506" y="65.89285" width="6.16988" height="6.16988"/><rect class="cls-22" x="154.74839" y="65.55952" width="6.16988" height="6.16988"/><circle class="cls-23" cx="24.84608" cy="137.64728" r="3.82813"/><circle class="cls-23" cx="36.67941" cy="137.64728" r="3.82813"/><circle class="cls-23" cx="48.18461" cy="137.64728" r="3.82813"/></g><g id="icons-2" data-name="icons"><polygon class="cls-24" points="750.793 237.621 689.889 277.365 628.985 237.621 689.889 197.877 750.793 237.621"/><polygon class="cls-25" points="750.793 222.55 689.889 262.294 628.985 222.55 689.889 182.806 750.793 222.55"/><polygon class="cls-26" points="750.793 207.34 689.889 247.084 628.985 207.34 689.889 167.596 750.793 207.34"/><path class="cls-27" d="M588.11768,252.22764a32.97072,32.97072,0,1,0-26.01818,12.72767c6.10924,0,11.05463-.89581,15.96074-3.79121h0l43.33525,43.33519,9.497-9.497Z" transform="translate(-39.83333 -29.51939)"/><circle class="cls-28" cx="521.89424" cy="202.81522" r="26.08333"/><polygon class="cls-29" points="336.972 277.469 348.096 235.951 378.49 266.344 336.972 277.469"/><rect class="cls-29" x="416.33534" y="197.36177" width="42.87957" height="97.71592" transform="translate(262.49167 -266.95706) rotate(45)"/></g><g id="pen"><polygon class="cls-30" points="563.515 458.448 515.709 458.448 500.132 486.379 578.018 486.379 563.515 458.448"/><path class="cls-30" d="M602.27423,487.96726s-3.76-24.17155,20.41153-34.37731L578.9084,363.21522,535.131,453.59c25.24584,11.8172,20.41153,34.37731,20.41153,34.37731Z" transform="translate(-39.83333 -29.51939)"/><line class="cls-30" x1="539.07507" y1="333.69584" x2="539.07507" y2="408.05842"/><ellipse class="cls-31" cx="539.07507" cy="415.9302" rx="8.32576" ry="7.87179"/><path class="cls-31" d="M734.46168,515.89883c0-87.6505-69.57363-158.57617-155.55328-158.57617" transform="translate(-39.83333 -29.51939)"/><path class="cls-31" d="M425.55337,515.89883c0-87.6505,69.57363-158.57617,155.55328-158.57617" transform="translate(-39.83333 -29.51939)"/><line class="cls-31" x1="392.31072" y1="327.80327" x2="688.04084" y2="327.80327"/><rect class="cls-32" x="532.79718" y="321.52538" width="12.55578" height="12.55578"/><circle class="cls-31" cx="387.30323" cy="327.80327" r="5.00749"/><circle class="cls-31" cx="693.04833" cy="327.80327" r="5.00749"/></g></svg>